<svg xmlns="http://www.w3.org/2000/svg" xmlns:xlink="http://www.w3.org/1999/xlink" width="137.974" height="28.491" viewBox="0 0 137.974 28.491" class="animate-svg">
  <defs>
    <style>.animate-svg path{-webkit-animation:draw ease-in-out forwards;animation:draw ease-in-out forwards;stroke:#000; animation-iteration-count: infinite}
      .animate-svg{-webkit-animation:fillopacity 3 ease-in-out forwards;animation-iteration-count: infinite; animation:fillopacity 3s ease-in-out forwards; animation-iteration-count: infinite}@-webkit-keyframes draw{100%{stroke-dashoffset:0}}@keyframes draw{100%{stroke-dashoffset:0}}@-webkit-keyframes fillopacity{0%,70%{fill-opacity:0;stroke-width:0.5%}100%{fill-opacity:1;stroke-width:0}}@keyframes fillopacity{0%,70%{fill-opacity:0;stroke-width:0.5%}100%{fill-opacity:1;stroke-width:0}}</style>
    <clipPath id="clip-path">
      <rect id="Rectangle_3652" data-name="Rectangle 3652" width="137.975" height="28.491" fill="none"></rect>
    </clipPath>
  </defs>
  <g id="Group_6029" data-name="Group 6029" transform="translate(-1 34)">
    <g id="Group_6028" data-name="Group 6028" transform="translate(1 -34)" clip-path="url(#clip-path)">
      <path id="Path_11194" data-name="Path 11194" d="M113.158,25.557l5.892-4.869H124.1l-6.842,5.655,6.934,7.445h-4.723l-4.878-5.244-1.434,1.188v4.056h-3.864v-13.1h3.864Zm24.994,8.231-1.16-2.119H130.05l-1.16,2.119h-4.148l7.19-13.1h3.179l7.19,13.1Zm-4.632-8.469-1.864,3.408h3.727Zm14.014,8.469h-3.864v-13.1h8.615a10.04,10.04,0,0,1,2.366.256,5.8,5.8,0,0,1,1.864.8,3.584,3.584,0,0,1,1.252,1.457,4.94,4.94,0,0,1,.438,2.156,3.876,3.876,0,0,1-.169,1.156,3.575,3.575,0,0,1-.429.932,3.747,3.747,0,0,1-.612.7,3.942,3.942,0,0,1-.694.507,4.668,4.668,0,0,1-.7.32l2.723,4.814h-4.148l-2.293-4.047h-4.348Zm4.75-9.875h-4.75V26.8h4.75a2.7,2.7,0,0,0,1.535-.343,1.493,1.493,0,0,0,0-2.2,2.7,2.7,0,0,0-1.535-.343m11.643,1.955a4,4,0,0,0,0,2.741,3.343,3.343,0,0,0,.795,1.165,3.774,3.774,0,0,0,1.59.854,8.708,8.708,0,0,0,2.48.311,7.354,7.354,0,0,0,2.923-.393V28.69h-3.289V25.831h6.815v6.5q-2.1,1.818-6.45,1.818a13.616,13.616,0,0,1-4.006-.539,7.6,7.6,0,0,1-2.827-1.489,6.3,6.3,0,0,1-1.626-2.188,6.921,6.921,0,0,1,0-5.4,6.3,6.3,0,0,1,1.626-2.188,7.609,7.609,0,0,1,2.827-1.489,13.617,13.617,0,0,1,4.006-.539,16.637,16.637,0,0,1,2.4.164,10.585,10.585,0,0,1,1.827.4q.7.238,1.215.47a4.207,4.207,0,0,1,.735.4l.21.164-1.8,2.622-.21-.105q-.137-.068-.594-.242a9.758,9.758,0,0,0-.955-.306,11.162,11.162,0,0,0-1.27-.242,11.048,11.048,0,0,0-1.557-.11,8.721,8.721,0,0,0-2.48.311,3.774,3.774,0,0,0-1.59.854,3.345,3.345,0,0,0-.795,1.165m18.988,4.856a5.849,5.849,0,0,0,1.708.215,5.991,5.991,0,0,0,1.722-.215,2.381,2.381,0,0,0,1.7-1.631,4.488,4.488,0,0,0,.179-1.343V20.687h3.864v7.062a8.045,8.045,0,0,1-.42,2.722,5.011,5.011,0,0,1-1.311,2,5.731,5.731,0,0,1-2.325,1.256,12.085,12.085,0,0,1-3.408.425q-3.828,0-5.6-1.631a6.164,6.164,0,0,1-1.772-4.773V20.687h3.864v7.062a4.8,4.8,0,0,0,.164,1.338,2.508,2.508,0,0,0,.553.991,2.36,2.36,0,0,0,1.082.644m17.476-.151h7.454v3.216H194.1V31.879l7.445-7.975h-7.262V20.687h13.566V22.6Z" transform="translate(-69.873 -12.992)" fill="#e3402b" style="stroke-dasharray: 448.873; stroke-dashoffset: 448.873; animation-delay: 0s; animation-duration: 2.29393s;"></path>
      <path id="Path_11195" data-name="Path 11195" d="M27.083,10.084c-.126-.163-.251-.322-.379-.482L24.7,11.609c.05.063.1.125.147.188a4.037,4.037,0,0,1,0,4.9c-.047.063-.1.125-.144.188l2.008,2.008c.128-.16.251-.32.376-.483a6.858,6.858,0,0,0,0-8.323m-10.39,14.76a4.037,4.037,0,0,1-4.9,0,44.684,44.684,0,0,1-4.348-3.8,44.368,44.368,0,0,1-3.8-4.351,4.037,4.037,0,0,1,0-4.9A43.034,43.034,0,0,1,11.8,3.647a4.037,4.037,0,0,1,4.9,0c.1.075.194.147.288.225l2.008-2.008c-.194-.157-.388-.307-.583-.457a6.856,6.856,0,0,0-8.323,0,47.049,47.049,0,0,0-4.63,4.05,46.5,46.5,0,0,0-4.047,4.627,6.852,6.852,0,0,0,0,8.323,46.639,46.639,0,0,0,4.047,4.63,46.836,46.836,0,0,0,4.627,4.047,6.856,6.856,0,0,0,8.323,0c.2-.15.392-.3.586-.457l-2.008-2.008-.291.225" transform="translate(0 0)" fill="#fff" style="stroke-dasharray: 119.846; stroke-dashoffset: 119.846; animation-delay: 0.333333s; animation-duration: 1.28703s;"></path>
      <path id="Path_11196" data-name="Path 11196" d="M38.9,8.485l7.243.019a.724.724,0,0,1,.51,1.236L36.724,19.67l9.949,9.949a.724.724,0,0,1-.512,1.236H38.894a2.7,2.7,0,0,1-1.912-.792L27.449,20.53a1.217,1.217,0,0,1,0-1.721l9.532-9.532A2.7,2.7,0,0,1,38.9,8.485" transform="translate(-17.32 -5.425)" fill="#e3402b" style="stroke-dasharray: 79.1613; stroke-dashoffset: 79.1613; animation-delay: 0.666667s; animation-duration: 1.47s;"></path>
    </g>
  </g>
</svg>