<svg id="Group_6035" data-name="Group 6035" xmlns="http://www.w3.org/2000/svg" xmlns:xlink="http://www.w3.org/1999/xlink" width="567.557" height="622.302" viewBox="0 0 567.557 622.302">
  <defs>
    <clipPath id="clip-path">
      <rect id="Rectangle_3656" data-name="Rectangle 3656" width="567.557" height="622.302" fill="none"/>
    </clipPath>
  </defs>
  <path id="Path_11524" data-name="Path 11524" d="M37.329,475.415H34.791V41.208l357.162-.344.006,2.538-354.63.336Z" transform="translate(8.836 10.378)" fill="#0d1857"/>
  <path id="Path_11525" data-name="Path 11525" d="M35.732,473.849H33.194V39.642L390.355,39.3l.008,2.538-354.63.336Z" transform="translate(8.43 9.981)" fill="#fff"/>
  <g id="Group_6034" data-name="Group 6034">
    <g id="Group_6033" data-name="Group 6033" clip-path="url(#clip-path)">
      <path id="Path_11526" data-name="Path 11526" d="M48.486,382.5h0l-.811-3.373h-1.94a16.111,16.111,0,0,0-8.612-2.241,16.11,16.11,0,0,0-8.611,2.241H26.647l-.888,3.329h.013a3.954,3.954,0,0,0-.161,1.062c0,3.664,5.154,6.633,11.511,6.633s11.513-2.969,11.513-6.633a3.935,3.935,0,0,0-.149-1.018" transform="translate(6.504 95.716)" fill="#fff"/>
      <path id="Path_11527" data-name="Path 11527" d="M48.249,382.58h0l-.811-3.373H45.5a16.11,16.11,0,0,0-8.611-2.241,19.629,19.629,0,0,0-2.218.13A14.109,14.109,0,0,0,29.642,379H28.619c-.114.068-.236.13-.345.2h-.55l-.834,3.127H26.9a3.954,3.954,0,0,0-.161,1.062c0,3.663,5.154,6.633,11.511,6.633a19.93,19.93,0,0,0,2.181-.123c4.621-.863,7.964-3.359,7.964-6.309a3.935,3.935,0,0,0-.149-1.018" transform="translate(6.792 95.737)" fill="#459ccf"/>
      <path id="Path_11528" data-name="Path 11528" d="M37.208,390.655c-6.58,0-11.931-3.164-11.931-7.052a3.846,3.846,0,0,1,.056-.642h-.021l.128-.527.971-3.642h2.064a16.746,16.746,0,0,1,8.734-2.242,16.749,16.749,0,0,1,8.734,2.242h2.147l.889,3.694a4.3,4.3,0,0,1,.161,1.116c0,3.889-5.352,7.052-11.93,7.052m-10.819-8.532H26.4l-.135.532a3.528,3.528,0,0,0-.145.948c0,3.427,4.977,6.215,11.094,6.215S48.3,387.029,48.3,383.6a3.45,3.45,0,0,0-.135-.909l0-.01-.734-3.053H45.7l-.1-.068a15.791,15.791,0,0,0-8.383-2.174,15.791,15.791,0,0,0-8.383,2.174l-.1.068H27.054Z" transform="translate(6.419 95.631)" fill="#0d1857"/>
      <path id="Path_11529" data-name="Path 11529" d="M47.568,380.528c0,3.373-4.745,6.107-10.6,6.107s-10.6-2.734-10.6-6.107,4.746-6.107,10.6-6.107,10.6,2.734,10.6,6.107" transform="translate(6.697 95.09)" fill="#ffb3a5"/>
      <path id="Path_11530" data-name="Path 11530" d="M47.416,380.342a4.393,4.393,0,0,0-1.536-3.155,14.872,14.872,0,0,0-7.886-2.036c-5.854,0-10.6,2.735-10.6,6.107a4.392,4.392,0,0,0,1.537,3.156,14.879,14.879,0,0,0,7.885,2.035c5.855,0,10.6-2.734,10.6-6.107" transform="translate(6.957 95.276)" fill="#fff"/>
      <path id="Path_11531" data-name="Path 11531" d="M37.053,387.14c-6.075,0-11.019-2.928-11.019-6.527s4.943-6.526,11.019-6.526,11.017,2.928,11.017,6.526-4.942,6.527-11.017,6.527m0-12.215c-5.614,0-10.181,2.552-10.181,5.688s4.567,5.689,10.181,5.689,10.181-2.552,10.181-5.689-4.567-5.688-10.181-5.688" transform="translate(6.612 95.005)" fill="#0d1857"/>
      <path id="Path_11532" data-name="Path 11532" d="M41.275,379.586c0,1.581-2.414,2.863-5.391,2.863s-5.392-1.282-5.392-2.863,2.414-2.863,5.392-2.863,5.391,1.282,5.391,2.863" transform="translate(7.744 95.675)" fill="#ffb4a6"/>
      <path id="Path_11533" data-name="Path 11533" d="M35.651,376.723a9.742,9.742,0,0,0-1.991.2c-1.241.524-2.039,1.333-2.039,2.241,0,1.581,2.414,2.862,5.391,2.862a9.658,9.658,0,0,0,1.993-.2c1.24-.524,2.038-1.332,2.038-2.238,0-1.583-2.413-2.864-5.391-2.864" transform="translate(8.031 95.675)" fill="#f14c51"/>
      <path id="Path_11534" data-name="Path 11534" d="M35.969,382.952c-3.258,0-5.81-1.442-5.81-3.282s2.552-3.282,5.81-3.282,5.81,1.442,5.81,3.282-2.552,3.282-5.81,3.282m0-5.726c-2.695,0-4.972,1.12-4.972,2.444s2.277,2.444,4.972,2.444,4.972-1.119,4.972-2.444-2.277-2.444-4.972-2.444" transform="translate(7.659 95.59)" fill="#0d1857"/>
      <path id="Path_11535" data-name="Path 11535" d="M35.92,378.582c2.336,0,4.32.79,5.069,1.893a1.693,1.693,0,0,0,.286-.915c0-1.58-2.414-2.862-5.391-2.862s-5.391,1.282-5.391,2.862a1.728,1.728,0,0,0,.322.969c.72-1.131,2.731-1.947,5.1-1.947" transform="translate(7.744 95.669)" fill="#0d1857"/>
      <path id="Path_11536" data-name="Path 11536" d="M31.254,380.839l-.7.009a2.12,2.12,0,0,1-.4-1.2c0-1.84,2.552-3.28,5.81-3.28s5.81,1.441,5.81,3.28a2.1,2.1,0,0,1-.352,1.141l-1.117.538.418-.528c-.693-1.023-2.591-1.71-4.721-1.71s-4.094.722-4.751,1.754m4.715-3.638c-2.695,0-4.972,1.119-4.972,2.443a1.06,1.06,0,0,0,.016.188A7.538,7.538,0,0,1,36,378.249a7.544,7.544,0,0,1,4.929,1.524,1.091,1.091,0,0,0,.006-.128c0-1.324-2.277-2.443-4.972-2.443" transform="translate(7.659 95.584)" fill="#0d1857"/>
      <path id="Path_11537" data-name="Path 11537" d="M33.013,385.281l-.227,3.939H37.6l4.291-1.1,2.311-.994,2.153-1.846.508-2.391-.686-3.136L45,381.679l-1.645,1.364-3.534,1.663-4.487.574Z" transform="translate(8.327 96.444)" fill="#0d1857"/>
      <path id="Path_11538" data-name="Path 11538" d="M26.979,380.892l-.838,3.917-.53-2.421.707-2.732Z" transform="translate(6.504 96.42)" fill="#0d1857"/>
      <path id="Path_11539" data-name="Path 11539" d="M332.848,40.42h0l-.811-3.373H330.1a17.668,17.668,0,0,0-17.223,0h-1.865l-.888,3.329h.013a3.952,3.952,0,0,0-.161,1.062c0,3.664,5.154,6.633,11.513,6.633S333,45.1,333,41.438a3.936,3.936,0,0,0-.149-1.018" transform="translate(78.723 8.84)" fill="#fff"/>
      <path id="Path_11540" data-name="Path 11540" d="M332.611,40.5h0l-.811-3.373h-1.94a16.11,16.11,0,0,0-8.611-2.241,19.637,19.637,0,0,0-2.218.13A14.087,14.087,0,0,0,314,36.925h-1.023c-.114.068-.236.13-.345.2h-.55l-.834,3.127h.013a3.955,3.955,0,0,0-.16,1.062c0,3.663,5.154,6.633,11.511,6.633a19.918,19.918,0,0,0,2.181-.123c4.621-.863,7.964-3.359,7.964-6.309a3.936,3.936,0,0,0-.149-1.018" transform="translate(79.01 8.86)" fill="#459ccf"/>
      <path id="Path_11541" data-name="Path 11541" d="M321.57,48.575c-6.58,0-11.932-3.164-11.932-7.052a3.845,3.845,0,0,1,.056-.642h-.021l.128-.527.971-3.642h2.064a18.141,18.141,0,0,1,17.468,0h2.147l.889,3.694a4.3,4.3,0,0,1,.16,1.116c0,3.889-5.352,7.052-11.93,7.052M310.75,40.043h.006l-.135.532a3.528,3.528,0,0,0-.145.948c0,3.427,4.977,6.215,11.094,6.215s11.093-2.788,11.093-6.215a3.457,3.457,0,0,0-.135-.909l0-.01-.734-3.053h-1.734l-.1-.068a17.246,17.246,0,0,0-16.766,0l-.1.068h-1.668Z" transform="translate(78.637 8.755)" fill="#0d1857"/>
      <path id="Path_11542" data-name="Path 11542" d="M331.929,38.449c0,3.373-4.745,6.107-10.6,6.107s-10.6-2.734-10.6-6.107,4.746-6.107,10.6-6.107,10.6,2.734,10.6,6.107" transform="translate(78.915 8.214)" fill="#ffb3a5"/>
      <path id="Path_11543" data-name="Path 11543" d="M331.777,38.263a4.393,4.393,0,0,0-1.536-3.155,14.872,14.872,0,0,0-7.886-2.036c-5.854,0-10.6,2.735-10.6,6.107a4.39,4.39,0,0,0,1.537,3.156,14.876,14.876,0,0,0,7.885,2.035c5.855,0,10.6-2.734,10.6-6.107" transform="translate(79.175 8.399)" fill="#fff"/>
      <path id="Path_11544" data-name="Path 11544" d="M321.415,45.058c-6.076,0-11.019-2.927-11.019-6.526s4.943-6.526,11.019-6.526,11.017,2.928,11.017,6.526-4.942,6.526-11.017,6.526m0-12.214c-5.614,0-10.181,2.552-10.181,5.688s4.567,5.689,10.181,5.689S331.6,41.669,331.6,38.533s-4.567-5.688-10.181-5.688" transform="translate(78.83 8.129)" fill="#0d1857"/>
      <path id="Path_11545" data-name="Path 11545" d="M325.637,37.507c0,1.581-2.414,2.863-5.391,2.863s-5.392-1.282-5.392-2.863,2.414-2.863,5.392-2.863,5.391,1.282,5.391,2.863" transform="translate(79.962 8.798)" fill="#ffb4a6"/>
      <path id="Path_11546" data-name="Path 11546" d="M320.012,34.644a9.649,9.649,0,0,0-1.991.2c-1.241.524-2.039,1.332-2.039,2.24,0,1.581,2.414,2.863,5.391,2.863a9.64,9.64,0,0,0,1.991-.2c1.241-.524,2.039-1.332,2.039-2.24,0-1.581-2.413-2.863-5.391-2.863" transform="translate(80.249 8.798)" fill="#f14c51"/>
      <path id="Path_11547" data-name="Path 11547" d="M320.33,40.873c-3.258,0-5.81-1.442-5.81-3.282s2.552-3.282,5.81-3.282,5.81,1.442,5.81,3.282-2.552,3.282-5.81,3.282m0-5.726c-2.695,0-4.972,1.12-4.972,2.444s2.277,2.444,4.972,2.444,4.972-1.119,4.972-2.444-2.277-2.444-4.972-2.444" transform="translate(79.877 8.714)" fill="#0d1857"/>
      <path id="Path_11548" data-name="Path 11548" d="M320.281,36.5c2.336,0,4.32.79,5.069,1.895a1.7,1.7,0,0,0,.286-.915c0-1.58-2.414-2.862-5.391-2.862s-5.391,1.282-5.391,2.862a1.717,1.717,0,0,0,.322.968c.72-1.131,2.731-1.947,5.1-1.947" transform="translate(79.962 8.792)" fill="#0d1857"/>
      <path id="Path_11549" data-name="Path 11549" d="M315.615,38.76l-.7.009a2.12,2.12,0,0,1-.395-1.2c0-1.84,2.552-3.28,5.81-3.28s5.81,1.441,5.81,3.28a2.1,2.1,0,0,1-.352,1.141l-1.117.538.418-.528c-.693-1.023-2.591-1.71-4.721-1.71s-4.094.722-4.751,1.754m4.715-3.638c-2.695,0-4.972,1.119-4.972,2.443a1.061,1.061,0,0,0,.016.188,8.7,8.7,0,0,1,9.921-.06,1.1,1.1,0,0,0,.006-.128c0-1.324-2.277-2.443-4.972-2.443" transform="translate(79.877 8.707)" fill="#0d1857"/>
      <path id="Path_11550" data-name="Path 11550" d="M317.374,43.2l-.227,3.939h4.815l4.291-1.1,2.311-.994,2.153-1.846.507-2.391-.685-3.136L329.365,39.6l-1.645,1.364-3.534,1.663L319.7,43.2Z" transform="translate(80.545 9.568)" fill="#0d1857"/>
      <path id="Path_11551" data-name="Path 11551" d="M311.34,38.813,310.5,42.73l-.53-2.421.707-2.732Z" transform="translate(78.722 9.543)" fill="#0d1857"/>
      <path id="Path_11552" data-name="Path 11552" d="M30.919,91.8l-17.329-10a1.767,1.767,0,0,1,0-3.058l20.3-11.781,22.619,14.3L38.542,91.789a7.61,7.61,0,0,1-7.623.009" transform="translate(3.227 17.004)" fill="#0d1857"/>
      <path id="Path_11553" data-name="Path 11553" d="M69.714,85.953,1.56,46.339a3.136,3.136,0,0,1,.013-5.43L20.461,30.04,86.377,81.392l-7.507,4.5a9.008,9.008,0,0,1-9.155.061" transform="translate(0 7.629)" fill="#0d1857"/>
      <path id="Path_11554" data-name="Path 11554" d="M34.132,25V28.79l68.4,39.38V64.492Z" transform="translate(8.668 6.349)" fill="#499dd1"/>
      <path id="Path_11555" data-name="Path 11555" d="M102.535,65.448l-68.4-39.492,8.181-4.724,68.4,39.492Z" transform="translate(8.668 5.392)" fill="#ffb2a5"/>
      <path id="Path_11556" data-name="Path 11556" d="M102.259,65.13,35.218,26.424l6.819-3.936L109.258,61.3Z" transform="translate(8.944 5.711)" fill="#fff"/>
      <path id="Path_11557" data-name="Path 11557" d="M111.318,61.131v-.578l-.5-.288L42.664,20.916l-.251-.145-8.18,4.724-.5.288v4.37l68.4,39.377.5.29.5-.288,8.182-4.714Zm-1.5-.288-1.969,1.136-5.211,3.007L78.349,50.965,35.235,26.073l7.178-4.144ZM34.734,29.574V26.939l67.4,38.914v2.523Z" transform="translate(8.567 5.275)" fill="#0d1858"/>
      <path id="Path_11558" data-name="Path 11558" d="M25.225,29.776v3.791l68.4,39.38V69.269Z" transform="translate(6.406 7.562)" fill="#499dd1"/>
      <path id="Path_11559" data-name="Path 11559" d="M93.627,70.226l-68.4-39.492,8.181-4.724,68.4,39.492Z" transform="translate(6.406 6.606)" fill="#ffb2a5"/>
      <path id="Path_11560" data-name="Path 11560" d="M93.351,69.907,26.31,31.2l6.819-3.936,67.223,38.81Z" transform="translate(6.682 6.924)" fill="#fff"/>
      <path id="Path_11561" data-name="Path 11561" d="M102.411,65.908v-.577l-.5-.29L33.757,25.693l-.25-.144-8.181,4.722-.5.288v4.37l68.4,39.378.5.288.5-.288,8.182-4.714Zm-1.5-.288-1.97,1.136-5.211,3.007L69.442,55.742,26.327,30.85l7.18-4.144ZM25.827,34.351V31.716l67.4,38.914v2.523Z" transform="translate(6.305 6.489)" fill="#0d1858"/>
      <path id="Path_11562" data-name="Path 11562" d="M16.318,34.927v3.791L84.72,78.1V74.42Z" transform="translate(4.144 8.87)" fill="#499dd1"/>
      <path id="Path_11563" data-name="Path 11563" d="M84.72,75.377l-68.4-39.492L24.5,31.161,92.9,70.653Z" transform="translate(4.144 7.914)" fill="#ffb2a5"/>
      <path id="Path_11564" data-name="Path 11564" d="M84.445,75.058,17.4,36.352l6.819-3.936,67.223,38.81Z" transform="translate(4.42 8.232)" fill="#fff"/>
      <path id="Path_11565" data-name="Path 11565" d="M93.5,71.06v-.578l-.5-.288L24.85,30.845,24.6,30.7l-8.18,4.724-.5.288v4.37l68.4,39.377.5.29.5-.288L93.5,74.747ZM92,70.772l-1.969,1.136-5.211,3.007L60.535,60.894,17.421,36,24.6,31.857ZM16.92,39.5V36.868l67.4,38.914v2.523Z" transform="translate(4.043 7.797)" fill="#0d1858"/>
      <path id="Path_11566" data-name="Path 11566" d="M7.41,40.094v3.791l68.4,39.38V79.586Z" transform="translate(1.882 10.182)" fill="#499dd1"/>
      <path id="Path_11567" data-name="Path 11567" d="M75.813,80.543,7.411,41.05l8.181-4.724,68.4,39.492Z" transform="translate(1.882 9.226)" fill="#ffb2a5"/>
      <path id="Path_11568" data-name="Path 11568" d="M75.537,80.224,8.5,41.518l6.819-3.937L82.538,76.392Z" transform="translate(2.158 9.544)" fill="#fff"/>
      <path id="Path_11569" data-name="Path 11569" d="M84.6,76.226v-.578l-.5-.288L15.944,36.011l-.252-.144-8.18,4.722-.5.288v4.37l68.4,39.377.5.288.5-.287L84.6,79.913Zm-1.5-.288-1.97,1.136-5.211,3.007L51.629,66.06,8.514,41.168l7.178-4.144ZM8.013,44.667V42.034l67.4,38.914V83.47Z" transform="translate(1.781 9.109)" fill="#0d1858"/>
      <path id="Path_11570" data-name="Path 11570" d="M34.132,15.493v3.791l68.4,39.38V54.985Z" transform="translate(8.668 3.935)" fill="#499dd1"/>
      <path id="Path_11571" data-name="Path 11571" d="M102.534,55.942l-68.4-39.492,8.181-4.722,68.4,39.492Z" transform="translate(8.668 2.978)" fill="#ffb2a5"/>
      <path id="Path_11572" data-name="Path 11572" d="M102.259,55.623,35.218,16.917l6.819-3.936,67.221,38.81Z" transform="translate(8.944 3.297)" fill="#fff"/>
      <path id="Path_11573" data-name="Path 11573" d="M111.318,51.625v-.578l-.5-.288L42.664,11.41l-.25-.144-8.181,4.722-.5.288v4.37l68.4,39.377.5.29.5-.288,8.182-4.714Zm-1.5-.288-1.97,1.136-5.211,3.007L78.349,41.459,35.235,16.567l7.179-4.144ZM34.734,20.068V17.433l67.4,38.916V58.87Z" transform="translate(8.567 2.861)" fill="#0d1858"/>
      <path id="Path_11574" data-name="Path 11574" d="M25.224,20.27v3.791l68.4,39.38V59.762Z" transform="translate(6.406 5.148)" fill="#499dd1"/>
      <path id="Path_11575" data-name="Path 11575" d="M93.627,60.719l-68.4-39.492L33.405,16.5,101.808,56Z" transform="translate(6.406 4.191)" fill="#ffb2a5"/>
      <path id="Path_11576" data-name="Path 11576" d="M93.351,60.4,26.31,21.694l6.819-3.936,67.221,38.81Z" transform="translate(6.682 4.51)" fill="#fff"/>
      <path id="Path_11577" data-name="Path 11577" d="M102.41,56.4v-.577l-.5-.29L33.757,16.187l-.251-.145-8.181,4.724-.5.288v4.37L93.226,64.8l.5.29.5-.288,8.182-4.714Zm-1.5-.288-1.97,1.136-5.211,3.007L69.441,46.236,26.327,21.344,33.506,17.2ZM25.826,24.845V22.21l67.4,38.916v2.522Z" transform="translate(6.305 4.074)" fill="#0d1858"/>
      <path id="Path_11578" data-name="Path 11578" d="M16.317,25.421v3.791l68.4,39.38V64.913Z" transform="translate(4.144 6.456)" fill="#499dd1"/>
      <path id="Path_11579" data-name="Path 11579" d="M84.72,65.87l-68.4-39.492L24.5,21.655,92.9,61.146Z" transform="translate(4.144 5.5)" fill="#ffb2a5"/>
      <path id="Path_11580" data-name="Path 11580" d="M84.444,65.551,17.4,26.845l6.819-3.936,67.221,38.81Z" transform="translate(4.42 5.818)" fill="#fff"/>
      <path id="Path_11581" data-name="Path 11581" d="M93.5,61.553v-.577l-.5-.29L24.85,21.338l-.25-.144-8.181,4.722-.5.288v4.37l68.4,39.378.5.288.5-.288L93.5,65.24ZM92,61.264,90.032,62.4l-5.211,3.007L60.536,51.387,17.421,26.495,24.6,22.35ZM16.92,30V27.361l67.4,38.916V68.8Z" transform="translate(4.043 5.383)" fill="#0d1858"/>
      <path id="Path_11582" data-name="Path 11582" d="M7.41,30.587v3.791l68.4,39.38V70.08Z" transform="translate(1.882 7.768)" fill="#499dd1"/>
      <path id="Path_11583" data-name="Path 11583" d="M75.813,71.036,7.41,31.544l8.181-4.724,68.4,39.492Z" transform="translate(1.882 6.811)" fill="#ffb2a5"/>
      <path id="Path_11584" data-name="Path 11584" d="M75.537,70.717,8.5,32.011l6.819-3.936,67.221,38.81Z" transform="translate(2.158 7.13)" fill="#fff"/>
      <path id="Path_11585" data-name="Path 11585" d="M84.6,66.719v-.578l-.5-.288L15.943,26.5l-.251-.145-8.18,4.724-.5.288v4.37l68.4,39.377.5.29.5-.288L84.6,70.406Zm-1.5-.288-1.969,1.136-5.211,3.007L51.628,56.553,8.514,31.66l7.178-4.143ZM8.013,35.162V32.527l67.4,38.914v2.523Z" transform="translate(1.781 6.694)" fill="#0d1858"/>
      <path id="Path_11586" data-name="Path 11586" d="M47.2,64.795v-8.3l10.358,5.99v8.23Z" transform="translate(11.986 14.347)" fill="#499dd1"/>
      <path id="Path_11587" data-name="Path 11587" d="M64.8,66.774l-6.647-3.827v-.577L46.8,55.8v9.46l11.358,6.492V70.6Zm-7.648,3.252L47.8,64.679V57.536l9.357,5.411Z" transform="translate(11.885 14.172)" fill="#0d1858"/>
      <path id="Path_11588" data-name="Path 11588" d="M13.2,45.029V36.943l10.358,6.052v8.063Z" transform="translate(3.352 9.382)" fill="#499dd1"/>
      <path id="Path_11589" data-name="Path 11589" d="M30.807,47.12l-6.647-3.826v-.411L12.8,36.246v9.248L24.159,52.1V50.946Zm-7.648,3.243L13.8,44.916V37.993l9.357,5.467Z" transform="translate(3.251 9.205)" fill="#0d1858"/>
      <path id="Path_11590" data-name="Path 11590" d="M29.8,54.6V46.513l10.358,6.052v8.063Z" transform="translate(7.567 11.813)" fill="#499dd1"/>
      <path id="Path_11591" data-name="Path 11591" d="M47.4,56.689l-6.647-3.826v-.409L29.4,45.818v9.245l11.358,6.61V60.516Zm-7.648,3.244L30.4,54.487V47.564l9.357,5.465Z" transform="translate(7.466 11.636)" fill="#0d1858"/>
      <path id="Path_11592" data-name="Path 11592" d="M41.5,44.337,22.513,33.374V11.446L41.5,22.409Z" transform="translate(5.718 2.907)" fill="#499dd1"/>
      <path id="Path_11593" data-name="Path 11593" d="M60.493,13.666,41.5,24.631,22.513,13.666,41.5,2.7Z" transform="translate(5.718 0.686)" fill="#ffb2a5"/>
      <path id="Path_11594" data-name="Path 11594" d="M59.791,16.691,44.267,25.578,25.277,14.615,40.8,5.728Z" transform="translate(6.42 1.455)" fill="#fff"/>
      <path id="Path_11595" data-name="Path 11595" d="M41.615,2.187,22.627,13.152l-.559.344V36.048l18.99,10.965.557.321.558-.321L61.164,36.048V13.473Zm0,1.289L59.49,13.795l-8.971,5.181-8.9,5.14-2.8-1.618L23.743,13.8ZM23.184,35.4V14.763l17.874,10.32v20.64Z" transform="translate(5.605 0.555)" fill="#0d1858"/>
      <path id="Path_11596" data-name="Path 11596" d="M98.053,18.375,67.212.569,36.372,18.375V53.987l30.84,17.806V36.272Z" transform="translate(9.237 0.144)" fill="#fff"/>
      <path id="Path_11597" data-name="Path 11597" d="M36.372,50.289,67.213,68.1V32.574l-30.841-17.9Z" transform="translate(9.237 3.728)" fill="#499dd1"/>
      <path id="Path_11598" data-name="Path 11598" d="M98.8,18.164,67.34,0,35.973,18.11l-.094.054-.005.71.005,0V54.487L66.72,72.294l.619.357.618-.357,30.53-17.627.31-.179V18.164ZM67.34,1.427,81.834,9.795,52.227,26.888,37.732,18.52ZM66.72,70.869l-29.6-17.094V19.589l29.6,17.093Zm13.172-42.5L67.339,35.611,52.844,27.244,82.45,10.151,96.943,18.52Z" transform="translate(9.111)" fill="#0d1858"/>
      <path id="Path_11599" data-name="Path 11599" d="M52.911,29.732l-5.722-3.3a1.762,1.762,0,0,0-1.8-.1,2.2,2.2,0,0,0-.937,2,4.954,4.954,0,0,0,2.122,4l5.721,3.3a2.077,2.077,0,0,0,1.031.3,1.546,1.546,0,0,0,.775-.207,2.2,2.2,0,0,0,.935-2,4.95,4.95,0,0,0-2.122-4m.568,4.931c-.173.1-.431-.019-.568-.1l-5.722-3.3a3.724,3.724,0,0,1-1.5-2.929c0-.552.171-.846.317-.93.176-.1.433.016.568.1l.4.228A4.581,4.581,0,0,0,48.9,31.046l4.883,2.818c-.026.459-.167.717-.307.8" transform="translate(11.289 6.636)" fill="#0d1858"/>
      <path id="Path_11600" data-name="Path 11600" d="M35.893,93.5,16.9,82.538V60.61l18.99,10.965Z" transform="translate(4.293 15.393)" fill="#499dd1"/>
      <path id="Path_11601" data-name="Path 11601" d="M54.883,62.831,35.893,73.8,16.9,62.831l18.99-10.963Z" transform="translate(4.293 13.173)" fill="#ffb2a5"/>
      <path id="Path_11602" data-name="Path 11602" d="M54.181,65.856,38.657,74.743,19.667,63.78l15.524-8.887Z" transform="translate(4.995 13.941)" fill="#fff"/>
      <path id="Path_11603" data-name="Path 11603" d="M36.006,51.353,17.018,62.316l-.559.344V85.213l18.99,10.965.557.322.558-.322L55.555,85.213V62.637Zm0,1.288,17.875,10.32-8.972,5.18-8.9,5.141-2.8-1.619-15.07-8.7ZM17.574,84.568V63.928L35.449,74.249V94.888Z" transform="translate(4.18 13.042)" fill="#0d1858"/>
      <path id="Path_11604" data-name="Path 11604" d="M29.152,83.035l-2.9-1.674a2.009,2.009,0,0,1-.84-1.605V76.71c0-.619.376-.9.84-.636l2.9,1.674a2.009,2.009,0,0,1,.84,1.605V82.4c0,.619-.376.9-.84.636" transform="translate(6.454 19.295)" fill="#fff"/>
      <path id="Path_11605" data-name="Path 11605" d="M52.165,16.28a.483.483,0,0,1,0,.915,1.751,1.751,0,0,1-1.586,0,.483.483,0,0,1,0-.915,1.751,1.751,0,0,1,1.586,0" transform="translate(12.762 4.086)" fill="#0c1859"/>
      <path id="Path_11606" data-name="Path 11606" d="M55.473,14.37a.483.483,0,0,1,0,.915,1.751,1.751,0,0,1-1.586,0,.483.483,0,0,1,0-.915,1.751,1.751,0,0,1,1.586,0" transform="translate(13.602 3.601)" fill="#0c1859"/>
      <path id="Path_11607" data-name="Path 11607" d="M58.782,12.461a.483.483,0,0,1,0,.915,1.751,1.751,0,0,1-1.586,0,.483.483,0,0,1,0-.915,1.751,1.751,0,0,1,1.586,0" transform="translate(14.442 3.117)" fill="#0c1859"/>
      <path id="Path_11608" data-name="Path 11608" d="M62.09,10.551a.483.483,0,0,1,0,.915,1.751,1.751,0,0,1-1.586,0,.483.483,0,0,1,0-.915,1.751,1.751,0,0,1,1.586,0" transform="translate(15.282 2.631)" fill="#0c1859"/>
      <path id="Path_11609" data-name="Path 11609" d="M65.4,8.641a.483.483,0,0,1,0,.915,1.751,1.751,0,0,1-1.586,0,.483.483,0,0,1,0-.915,1.751,1.751,0,0,1,1.586,0" transform="translate(16.123 2.146)" fill="#0c1859"/>
      <path id="Path_11610" data-name="Path 11610" d="M68.708,6.732a.483.483,0,0,1,0,.915,1.751,1.751,0,0,1-1.586,0,.483.483,0,0,1,0-.915,1.751,1.751,0,0,1,1.586,0" transform="translate(16.963 1.662)" fill="#0c1859"/>
      <path id="Path_11611" data-name="Path 11611" d="M48.856,14.37a.483.483,0,0,1,0,.915,1.751,1.751,0,0,1-1.586,0,.483.483,0,0,1,0-.915,1.751,1.751,0,0,1,1.586,0" transform="translate(11.921 3.601)" fill="#0c1859"/>
      <path id="Path_11612" data-name="Path 11612" d="M52.165,12.461a.483.483,0,0,1,0,.915,1.751,1.751,0,0,1-1.586,0,.483.483,0,0,1,0-.915,1.751,1.751,0,0,1,1.586,0" transform="translate(12.762 3.117)" fill="#0c1859"/>
      <path id="Path_11613" data-name="Path 11613" d="M55.473,10.551a.483.483,0,0,1,0,.915,1.751,1.751,0,0,1-1.586,0,.483.483,0,0,1,0-.915,1.751,1.751,0,0,1,1.586,0" transform="translate(13.602 2.631)" fill="#0c1859"/>
      <path id="Path_11614" data-name="Path 11614" d="M58.782,8.641a.483.483,0,0,1,0,.915,1.751,1.751,0,0,1-1.586,0,.483.483,0,0,1,0-.915,1.751,1.751,0,0,1,1.586,0" transform="translate(14.442 2.146)" fill="#0c1859"/>
      <path id="Path_11615" data-name="Path 11615" d="M62.09,6.732a.483.483,0,0,1,0,.915,1.751,1.751,0,0,1-1.586,0,.483.483,0,0,1,0-.915,1.751,1.751,0,0,1,1.586,0" transform="translate(15.282 1.662)" fill="#0c1859"/>
      <path id="Path_11616" data-name="Path 11616" d="M65.4,4.822a.483.483,0,0,1,0,.915,1.751,1.751,0,0,1-1.586,0,.483.483,0,0,1,0-.915,1.751,1.751,0,0,1,1.586,0" transform="translate(16.123 1.176)" fill="#0c1859"/>
      <path id="Path_11617" data-name="Path 11617" d="M45.547,12.461a.483.483,0,0,1,0,.915,1.751,1.751,0,0,1-1.586,0,.483.483,0,0,1,0-.915,1.751,1.751,0,0,1,1.586,0" transform="translate(11.081 3.117)" fill="#0c1859"/>
      <path id="Path_11618" data-name="Path 11618" d="M48.856,10.551a.483.483,0,0,1,0,.915,1.751,1.751,0,0,1-1.586,0,.483.483,0,0,1,0-.915,1.751,1.751,0,0,1,1.586,0" transform="translate(11.921 2.631)" fill="#0c1859"/>
      <path id="Path_11619" data-name="Path 11619" d="M52.165,8.641a.483.483,0,0,1,0,.915,1.751,1.751,0,0,1-1.586,0,.483.483,0,0,1,0-.915,1.751,1.751,0,0,1,1.586,0" transform="translate(12.762 2.146)" fill="#0c1859"/>
      <path id="Path_11620" data-name="Path 11620" d="M55.473,6.732a.483.483,0,0,1,0,.915,1.751,1.751,0,0,1-1.586,0,.483.483,0,0,1,0-.915,1.751,1.751,0,0,1,1.586,0" transform="translate(13.602 1.662)" fill="#0c1859"/>
      <path id="Path_11621" data-name="Path 11621" d="M58.782,4.822a.483.483,0,0,1,0,.915,1.751,1.751,0,0,1-1.586,0,.483.483,0,0,1,0-.915,1.751,1.751,0,0,1,1.586,0" transform="translate(14.442 1.176)" fill="#0c1859"/>
      <path id="Path_11622" data-name="Path 11622" d="M62.091,2.912a.483.483,0,0,1,0,.915,1.751,1.751,0,0,1-1.586,0,.483.483,0,0,1,0-.915,1.751,1.751,0,0,1,1.586,0" transform="translate(15.283 0.691)" fill="#0c1859"/>
      <path id="Path_11623" data-name="Path 11623" d="M33.757,66.047a.483.483,0,0,1,0,.915,1.751,1.751,0,0,1-1.586,0,.483.483,0,0,1,0-.915,1.751,1.751,0,0,1,1.586,0" transform="translate(8.087 16.726)" fill="#0c1859"/>
      <path id="Path_11624" data-name="Path 11624" d="M37.066,64.137a.483.483,0,0,1,0,.915,1.751,1.751,0,0,1-1.586,0,.483.483,0,0,1,0-.915,1.751,1.751,0,0,1,1.586,0" transform="translate(8.927 16.24)" fill="#0c1859"/>
      <path id="Path_11625" data-name="Path 11625" d="M40.375,62.227a.483.483,0,0,1,0,.915,1.751,1.751,0,0,1-1.586,0,.483.483,0,0,1,0-.915,1.751,1.751,0,0,1,1.586,0" transform="translate(9.767 15.755)" fill="#0c1859"/>
      <path id="Path_11626" data-name="Path 11626" d="M43.683,60.318a.483.483,0,0,1,0,.915,1.751,1.751,0,0,1-1.586,0,.483.483,0,0,1,0-.915,1.751,1.751,0,0,1,1.586,0" transform="translate(10.608 15.271)" fill="#0c1859"/>
      <path id="Path_11627" data-name="Path 11627" d="M30.449,64.137a.483.483,0,0,1,0,.915,1.751,1.751,0,0,1-1.586,0,.483.483,0,0,1,0-.915,1.751,1.751,0,0,1,1.586,0" transform="translate(7.247 16.24)" fill="#0c1859"/>
      <path id="Path_11628" data-name="Path 11628" d="M33.757,62.227a.483.483,0,0,1,0,.915,1.751,1.751,0,0,1-1.586,0,.483.483,0,0,1,0-.915,1.751,1.751,0,0,1,1.586,0" transform="translate(8.087 15.755)" fill="#0c1859"/>
      <path id="Path_11629" data-name="Path 11629" d="M37.066,60.318a.483.483,0,0,1,0,.915,1.751,1.751,0,0,1-1.586,0,.483.483,0,0,1,0-.915,1.751,1.751,0,0,1,1.586,0" transform="translate(8.927 15.271)" fill="#0c1859"/>
      <path id="Path_11630" data-name="Path 11630" d="M40.375,58.408a.483.483,0,0,1,0,.915,1.751,1.751,0,0,1-1.586,0,.483.483,0,0,1,0-.915,1.751,1.751,0,0,1,1.586,0" transform="translate(9.767 14.786)" fill="#0c1859"/>
      <path id="Path_11631" data-name="Path 11631" d="M35.152,10.551a.483.483,0,0,1,0,.915,1.751,1.751,0,0,1-1.586,0,.483.483,0,0,1,0-.915,1.751,1.751,0,0,1,1.586,0" transform="translate(8.441 2.631)" fill="#0c1859"/>
      <path id="Path_11632" data-name="Path 11632" d="M38.461,8.641a.483.483,0,0,1,0,.915,1.751,1.751,0,0,1-1.586,0,.483.483,0,0,1,0-.915,1.751,1.751,0,0,1,1.586,0" transform="translate(9.281 2.146)" fill="#0c1859"/>
      <path id="Path_11633" data-name="Path 11633" d="M41.77,6.732a.483.483,0,0,1,0,.915,1.751,1.751,0,0,1-1.586,0,.483.483,0,0,1,0-.915,1.751,1.751,0,0,1,1.586,0" transform="translate(10.122 1.662)" fill="#0c1859"/>
      <path id="Path_11634" data-name="Path 11634" d="M31.844,8.641a.483.483,0,0,1,0,.915,1.751,1.751,0,0,1-1.586,0,.483.483,0,0,1,0-.915,1.751,1.751,0,0,1,1.586,0" transform="translate(7.601 2.146)" fill="#0c1859"/>
      <path id="Path_11635" data-name="Path 11635" d="M35.152,6.732a.483.483,0,0,1,0,.915,1.751,1.751,0,0,1-1.586,0,.483.483,0,0,1,0-.915,1.751,1.751,0,0,1,1.586,0" transform="translate(8.441 1.662)" fill="#0c1859"/>
      <path id="Path_11636" data-name="Path 11636" d="M38.461,4.822a.483.483,0,0,1,0,.915,1.751,1.751,0,0,1-1.586,0,.483.483,0,0,1,0-.915,1.751,1.751,0,0,1,1.586,0" transform="translate(9.281 1.176)" fill="#0c1859"/>
      <path id="Path_11637" data-name="Path 11637" d="M22.468,458.606l-4.105,2.32a2.22,2.22,0,0,0,0,3.866l16.967,9.58a1.643,1.643,0,0,1,.006,2.859l-7.281,4.151a2.49,2.49,0,0,0-.016,4.317l13.439,7.791a8.443,8.443,0,0,0,8.457.009l8.566-4.942,28.825,16.63a4.824,4.824,0,0,0,4.8.014l1.486-.846a1.927,1.927,0,0,0,0-3.349L24.768,461.76Z" transform="translate(4.377 116.47)" fill="#0d1857"/>
      <path id="Path_11638" data-name="Path 11638" d="M92.762,443.624,18.754,401.418a2.048,2.048,0,0,0-2.365-.034l-3.628,2.173,2.686,3.822v57.378A7.8,7.8,0,0,0,18.754,471l69.107,39.411,3.557,5.062,3.426-2.054a2.812,2.812,0,0,0,1.224-2.683V449.865a7.8,7.8,0,0,0-3.307-6.241" transform="translate(3.241 101.847)" fill="#ffb4a6"/>
      <path id="Path_11639" data-name="Path 11639" d="M75.251,440.4,13.744,405.984l-.983-2.252,2.734-1.636a2.047,2.047,0,0,1,2.365.034l74.007,42.206A6.726,6.726,0,0,1,94.4,447.33l.092.374L90.1,450.332Z" transform="translate(3.241 102.028)" fill="#fff"/>
      <path id="Path_11640" data-name="Path 11640" d="M79.129,440.164l-3.981,2.366.351,1.49,3.63-2.235Z" transform="translate(19.085 111.787)" fill="#fff"/>
      <path id="Path_11641" data-name="Path 11641" d="M16.275,401.179a2.4,2.4,0,0,1,2.755.006l74.008,42.206a8.19,8.19,0,0,1,3.484,6.544v60.87a3.14,3.14,0,0,1-1.394,2.983l-3.705,2.222-3.7-5.265-69.04-39.372a8.2,8.2,0,0,1-3.482-6.546V407.562l-2.84-4.04ZM15.9,407.34v57.488a7.422,7.422,0,0,0,3.13,5.936l69.107,39.411,3.484,4.9.737-.441.137-1.092,2.706-1.669a1.265,1.265,0,0,0,.618-1.058V449.936A7.42,7.42,0,0,0,92.689,444L18.681,401.793a1.733,1.733,0,0,0-2.01-.038l-3.3,1.979Z" transform="translate(3.139 101.777)" fill="#0d1858"/>
      <path id="Path_11642" data-name="Path 11642" d="M32.784,478.19l15.006-8.519a6.161,6.161,0,0,1,5.559.214l9.129,5.209,4.337,1.937v1.983h-.028a1.979,1.979,0,0,1-1.048,1.305L47.25,490.825a5.006,5.006,0,0,1-2.441.564,6.444,6.444,0,0,1-3.117-.779l-12.017-6.853a2.518,2.518,0,0,1-1.447-1.911,1.356,1.356,0,0,1,0-.161v-1.61Z" transform="translate(7.168 119.137)" fill="#0d1858"/>
      <path id="Path_11643" data-name="Path 11643" d="M65.5,478.727l-18.49,10.506a5.86,5.86,0,0,1-5.211-.213l-12.017-6.854c-1.542-.879-1.709-2.209-.374-2.971l18.49-10.506a5.853,5.853,0,0,1,5.21.213l12.018,6.853c1.541.88,1.709,2.211.374,2.972" transform="translate(7.238 118.901)" fill="#ffb2a5"/>
      <path id="Path_11644" data-name="Path 11644" d="M31.021,478.943l5.022-2.974a5.308,5.308,0,0,1,5.333-.045l12.587,7.2-7.607,4.321a5.85,5.85,0,0,1-5.21-.213l-9.752-5.314c-1.541-.88-1.709-2.211-.374-2.972" transform="translate(7.649 120.692)" fill="#fff"/>
      <path id="Path_11645" data-name="Path 11645" d="M44.808,490.174a5.01,5.01,0,0,0,2.443-.564L65.741,479.1a1.868,1.868,0,0,0,1.078-1.6,2.463,2.463,0,0,0-1.452-1.986l-12.018-6.853a6.164,6.164,0,0,0-5.559-.213L29.3,478.962a1.87,1.87,0,0,0-1.08,1.6,2.458,2.458,0,0,0,1.453,1.985L41.692,489.4a6.438,6.438,0,0,0,3.116.778m20.585-11.679L46.9,489a5.475,5.475,0,0,1-4.863-.213l-12.018-6.854c-.7-.4-1.1-.9-1.1-1.376a1.225,1.225,0,0,1,.725-.986l18.488-10.506a5.477,5.477,0,0,1,4.864.213l12.017,6.853c.7.4,1.1.9,1.1,1.377a1.225,1.225,0,0,1-.725.986Z" transform="translate(7.167 118.829)" fill="#0d1858"/>
      <path id="Path_11646" data-name="Path 11646" d="M13.024,402.764a2.478,2.478,0,0,1,2.524.166l74.008,42.2a8.191,8.191,0,0,1,3.484,6.546v60.87a2.345,2.345,0,0,1-1.011,2.235,2.074,2.074,0,0,1-1.051.26,4.371,4.371,0,0,1-2.1-.647L15.2,473.118a8.2,8.2,0,0,1-3.484-6.546V405.7a3.238,3.238,0,0,1,1.307-2.938" transform="translate(2.976 102.219)" fill="#0d1858"/>
      <path id="Path_11647" data-name="Path 11647" d="M12,447.952v7.378a7.741,7.741,0,0,0,3.554,6.079l73.514,41.924c1.962,1.12,3.554.212,3.554-2.026v-7.378Z" transform="translate(3.047 113.765)" fill="#fff"/>
      <path id="Path_11648" data-name="Path 11648" d="M90.724,504.287a2.183,2.183,0,0,0,1.111-.29,2.791,2.791,0,0,0,1.205-2.568v-7.582l-.177-.1L11.717,447.47v7.981a8.137,8.137,0,0,0,3.731,6.384l73.514,41.924a3.607,3.607,0,0,0,1.763.528m1.614-10.033v7.175a2.136,2.136,0,0,1-.855,1.962,2.182,2.182,0,0,1-2.173-.242L15.795,461.227a7.366,7.366,0,0,1-3.376-5.776v-6.774Z" transform="translate(2.976 113.642)" fill="#0d1858"/>
      <path id="Path_11649" data-name="Path 11649" d="M87.07,497.031l-71-40.491a2.752,2.752,0,0,1-1.166-2.2V407.846c0-.848.523-1.238,1.166-.87l71,40.491a2.749,2.749,0,0,1,1.166,2.2v46.493c0,.848-.522,1.238-1.166.87" transform="translate(3.785 103.323)" fill="#499dd1"/>
      <path id="Path_11650" data-name="Path 11650" d="M87.606,497.591a.942.942,0,0,0,.478-.128,1.357,1.357,0,0,0,.573-1.233V449.739a3.092,3.092,0,0,0-1.342-2.505l-71-40.491a1.087,1.087,0,0,0-1.116-.058,1.355,1.355,0,0,0-.576,1.233V454.41a3.093,3.093,0,0,0,1.343,2.505l71,40.492a1.3,1.3,0,0,0,.64.184M15.679,407.259a.636.636,0,0,1,.287.092l71,40.491a2.4,2.4,0,0,1,.989,1.9v46.492a.736.736,0,0,1-.224.627.457.457,0,0,1-.416-.06l-71-40.491a2.407,2.407,0,0,1-.988-1.9V407.918a.732.732,0,0,1,.224-.627.251.251,0,0,1,.128-.031" transform="translate(3.714 103.252)" fill="#0d1858"/>
      <path id="Path_11651" data-name="Path 11651" d="M64.9,466.609,31.55,447.353c-4.042-2.334-7.317-8.592-7.317-13.98s3.275-7.864,7.317-5.53L64.9,447.1c4.04,2.332,7.317,8.592,7.317,13.979s-3.277,7.864-7.317,5.531" transform="translate(6.154 108.435)" fill="#fff"/>
      <path id="Path_11652" data-name="Path 11652" d="M66.523,465.423a6.281,6.281,0,0,1-3.107-.93L30.063,445.237c-4.143-2.394-7.515-8.818-7.515-14.324,0-2.977.994-5.26,2.727-6.26,1.458-.841,3.3-.7,5.184.386L63.812,444.3c4.144,2.391,7.515,8.817,7.515,14.323,0,2.978-.994,5.259-2.727,6.261a4.124,4.124,0,0,1-2.077.543M27.353,424.9a3.33,3.33,0,0,0-1.68.435c-1.481.856-2.331,2.888-2.331,5.574,0,5.254,3.193,11.371,7.118,13.637l33.353,19.257a4.342,4.342,0,0,0,4.391.385c1.481-.855,2.331-2.888,2.331-5.573,0-5.253-3.194-11.37-7.119-13.637L30.063,425.727a5.508,5.508,0,0,0-2.71-.823" transform="translate(5.726 107.709)" fill="#0d1858"/>
      <path id="Path_11653" data-name="Path 11653" d="M58.2,454.412v11.707c0,.465.478.986.775.844l1.536-.731c.213-.1.554.182.668.553l1.482,4.87c.148.487.556.9.9.907l1.272.03c.324.008.464-.354.32-.815l-1.57-4.995c-.115-.371.061-.614.347-.478l2.064.987c.4.192.571-.283.273-.77L58.884,454.46c-.263-.43-.687-.46-.687-.048" transform="translate(14.78 115.331)" fill="#ef4c4f"/>
      <path id="Path_11654" data-name="Path 11654" d="M63.621,470.529H63.6l-1.272-.03a1.57,1.57,0,0,1-1.267-1.188l-1.482-4.87a.559.559,0,0,0-.187-.277l-1.467.7a.732.732,0,0,1-.714-.074,1.429,1.429,0,0,1-.628-1.127V451.953a.644.644,0,0,1,.451-.667.9.9,0,0,1,.971.507l7.376,12.062a1.029,1.029,0,0,1,.024,1.213.661.661,0,0,1-.806.123l-1.826-.871,1.534,4.879a1.152,1.152,0,0,1-.1,1.042.713.713,0,0,1-.587.29m-4.232-7.174a.731.731,0,0,1,.3.065,1.283,1.283,0,0,1,.655.789l1.483,4.872a.908.908,0,0,0,.525.626l1.264.029c-.024-.01,0-.117-.061-.3l-1.569-4.995a.809.809,0,0,1,.174-.884.644.644,0,0,1,.721-.069l1.888.9a.837.837,0,0,0-.06-.122l-7.328-11.983V463.66a.642.642,0,0,0,.262.459l1.482-.7a.627.627,0,0,1,.266-.059" transform="translate(14.371 114.605)" fill="#0d1858"/>
      <path id="Path_11655" data-name="Path 11655" d="M29.278,437.729a.492.492,0,0,1-.26-.45v-6.07c0-.2.089-.249.26-.15l1.278.739a5.161,5.161,0,0,1,2.937,5.03c0,2.384-.841,2.849-2.937,1.64Zm1.278.083c1.659.959,2.322.574,2.322-1.339a4.11,4.11,0,0,0-2.322-4.021l-.947-.547v5.362Z" transform="translate(7.37 109.462)" fill="#0d1858"/>
      <path id="Path_11656" data-name="Path 11656" d="M33.621,440.236a.493.493,0,0,1-.26-.448v-6.073c0-.2.09-.247.26-.149l2.831,1.635a.491.491,0,0,1,.26.448v.056c0,.2-.089.247-.26.149l-2.5-1.443v1.868l2.347,1.356a.489.489,0,0,1,.258.448v.056c0,.2-.089.247-.258.149l-2.347-1.354v2.839l2.5,1.445a.491.491,0,0,1,.26.448v.056c0,.2-.089.247-.26.149Z" transform="translate(8.473 110.099)" fill="#0d1858"/>
      <path id="Path_11657" data-name="Path 11657" d="M37.261,442.337a.492.492,0,0,1-.26-.449v-6.07c0-.2.09-.248.26-.149l.073.04a.5.5,0,0,1,.258.45v5.716l2.4,1.389a.489.489,0,0,1,.26.446v.058c0,.194-.089.246-.26.149Z" transform="translate(9.397 110.632)" fill="#0d1858"/>
      <path id="Path_11658" data-name="Path 11658" d="M40.564,444.245a.493.493,0,0,1-.258-.449v-6.072c0-.2.089-.248.258-.149l.073.041a.492.492,0,0,1,.26.449v6.072c0,.2-.089.248-.26.149Z" transform="translate(10.236 111.117)" fill="#0d1858"/>
      <path id="Path_11659" data-name="Path 11659" d="M43.928,446.19a.634.634,0,0,1-.3-.406L41.4,438.408c-.082-.252,0-.346.194-.233l.1.056a.631.631,0,0,1,.3.4l2.039,6.736,2.03-4.386c.056-.125.145-.149.3-.06l.1.056a.352.352,0,0,1,.194.458l-2.225,4.806c-.056.125-.145.149-.3.06Z" transform="translate(10.507 111.269)" fill="#0d1858"/>
      <path id="Path_11660" data-name="Path 11660" d="M46.464,447.651a.494.494,0,0,1-.26-.449V441.13c0-.2.09-.247.26-.149l2.831,1.635a.493.493,0,0,1,.26.448v.056c0,.2-.09.247-.26.149l-2.5-1.443v1.868l2.346,1.354a.5.5,0,0,1,.258.449v.056c0,.2-.089.247-.258.149L46.8,444.348v2.84l2.5,1.443a.494.494,0,0,1,.26.449v.056c0,.2-.09.247-.26.149Z" transform="translate(11.734 111.982)" fill="#0d1858"/>
      <path id="Path_11661" data-name="Path 11661" d="M49.975,449.678a.491.491,0,0,1-.26-.448v-6.073c0-.2.089-.247.26-.149l1.634.944a3.752,3.752,0,0,1,1.845,3.139c0,1.037-.51,1.49-1.327,1.243l1.512,3.1c.138.276.065.4-.153.276L53.3,451.6a.793.793,0,0,1-.316-.359l-1.6-3.27-1.077-.621v2.223c0,.2-.089.247-.258.149Zm1.634-2.232c.736.425,1.23.14,1.23-.711a2.519,2.519,0,0,0-1.23-2.129l-1.3-.752v2.84Z" transform="translate(12.626 112.497)" fill="#0d1858"/>
      <path id="Path_11662" data-name="Path 11662" d="M42.553,483.012a.483.483,0,0,1,0,.915,1.75,1.75,0,0,1-1.586,0,.483.483,0,0,1,0-.915,1.751,1.751,0,0,1,1.586,0" transform="translate(10.321 122.621)" fill="#0c1859"/>
      <path id="Path_11663" data-name="Path 11663" d="M45.861,481.1a.483.483,0,0,1,0,.915,1.751,1.751,0,0,1-1.586,0,.483.483,0,0,1,0-.915,1.751,1.751,0,0,1,1.586,0" transform="translate(11.161 122.136)" fill="#0c1859"/>
      <path id="Path_11664" data-name="Path 11664" d="M39.244,481.1a.483.483,0,0,1,0,.915,1.751,1.751,0,0,1-1.586,0,.483.483,0,0,1,0-.915,1.751,1.751,0,0,1,1.586,0" transform="translate(9.48 122.136)" fill="#0c1859"/>
      <path id="Path_11665" data-name="Path 11665" d="M42.553,479.193a.483.483,0,0,1,0,.915,1.751,1.751,0,0,1-1.586,0,.483.483,0,0,1,0-.915,1.75,1.75,0,0,1,1.586,0" transform="translate(10.321 121.651)" fill="#0c1859"/>
      <path id="Path_11666" data-name="Path 11666" d="M35.936,479.193a.484.484,0,0,1,0,.915,1.753,1.753,0,0,1-1.588,0,.483.483,0,0,1,0-.915,1.753,1.753,0,0,1,1.588,0" transform="translate(8.64 121.651)" fill="#0c1859"/>
      <path id="Path_11667" data-name="Path 11667" d="M39.244,477.283a.483.483,0,0,1,0,.915,1.751,1.751,0,0,1-1.586,0,.483.483,0,0,1,0-.915,1.75,1.75,0,0,1,1.586,0" transform="translate(9.48 121.166)" fill="#0c1859"/>
      <path id="Path_11668" data-name="Path 11668" d="M32.627,477.283a.484.484,0,0,1,0,.917,1.758,1.758,0,0,1-1.586,0,.484.484,0,0,1,0-.917,1.75,1.75,0,0,1,1.586,0" transform="translate(7.8 121.166)" fill="#0c1859"/>
      <path id="Path_11669" data-name="Path 11669" d="M35.936,475.374a.484.484,0,0,1,0,.915,1.753,1.753,0,0,1-1.588,0,.483.483,0,0,1,0-.915,1.753,1.753,0,0,1,1.588,0" transform="translate(8.64 120.681)" fill="#0c1859"/>
      <path id="Path_11670" data-name="Path 11670" d="M115.754,572.84l-.008-2.538,371.864-.336V114.787h2.538V572.5Z" transform="translate(29.396 29.152)" fill="#0d1857"/>
      <path id="Path_11671" data-name="Path 11671" d="M114.156,571.274l-.008-2.538,371.864-.336V113.221h2.538v457.71Z" transform="translate(28.99 28.754)" fill="#fff"/>
      <path id="Path_11672" data-name="Path 11672" d="M426.132,114.568h0l-.811-3.373h-1.94a17.668,17.668,0,0,0-17.223,0h-1.865l-.888,3.329h.013a3.954,3.954,0,0,0-.161,1.062c0,3.663,5.154,6.633,11.511,6.633s11.513-2.971,11.513-6.633a3.936,3.936,0,0,0-.149-1.018" transform="translate(102.414 27.671)" fill="#fff"/>
      <path id="Path_11673" data-name="Path 11673" d="M425.895,114.648h0l-.811-3.373h-1.94a16.11,16.11,0,0,0-8.611-2.241,19.636,19.636,0,0,0-2.218.13,14.077,14.077,0,0,0-5.026,1.909h-1.023c-.114.068-.236.13-.345.2h-.55l-.834,3.127h.012a3.955,3.955,0,0,0-.16,1.062c0,3.663,5.154,6.633,11.511,6.633a19.932,19.932,0,0,0,2.181-.123c4.621-.863,7.964-3.359,7.964-6.309a3.936,3.936,0,0,0-.149-1.018" transform="translate(102.701 27.691)" fill="#459ccf"/>
      <path id="Path_11674" data-name="Path 11674" d="M414.855,122.724c-6.581,0-11.933-3.164-11.933-7.052a3.982,3.982,0,0,1,.056-.642h-.02l.127-.527.972-3.642h2.064a18.13,18.13,0,0,1,17.466,0h2.148l.888,3.694a4.3,4.3,0,0,1,.162,1.116c0,3.889-5.352,7.052-11.93,7.052m-10.819-8.532h.005l-.135.532a3.528,3.528,0,0,0-.145.948c0,3.427,4.978,6.215,11.1,6.215s11.093-2.788,11.093-6.215a3.5,3.5,0,0,0-.135-.909l0-.01-.732-3.053h-1.734l-.105-.068a17.244,17.244,0,0,0-16.764,0l-.105.068H404.7Z" transform="translate(102.328 27.586)" fill="#0d1857"/>
      <path id="Path_11675" data-name="Path 11675" d="M425.213,112.6c0,3.373-4.745,6.108-10.6,6.108s-10.6-2.735-10.6-6.108,4.746-6.106,10.6-6.106,10.6,2.734,10.6,6.106" transform="translate(102.606 27.045)" fill="#ffb3a5"/>
      <path id="Path_11676" data-name="Path 11676" d="M425.061,112.41a4.392,4.392,0,0,0-1.536-3.154,14.883,14.883,0,0,0-7.886-2.036c-5.854,0-10.6,2.735-10.6,6.107a4.39,4.39,0,0,0,1.537,3.156,14.882,14.882,0,0,0,7.885,2.035c5.855,0,10.6-2.735,10.6-6.108" transform="translate(102.866 27.23)" fill="#fff"/>
      <path id="Path_11677" data-name="Path 11677" d="M414.7,119.208c-6.076,0-11.019-2.928-11.019-6.527s4.943-6.526,11.019-6.526,11.017,2.928,11.017,6.526-4.942,6.527-11.017,6.527m0-12.215c-5.614,0-10.181,2.552-10.181,5.688s4.567,5.689,10.181,5.689,10.181-2.552,10.181-5.689-4.567-5.688-10.181-5.688" transform="translate(102.521 26.96)" fill="#0d1857"/>
      <path id="Path_11678" data-name="Path 11678" d="M418.921,111.655c0,1.581-2.414,2.863-5.391,2.863s-5.392-1.282-5.392-2.863,2.414-2.863,5.392-2.863,5.391,1.282,5.391,2.863" transform="translate(103.653 27.629)" fill="#ffb4a6"/>
      <path id="Path_11679" data-name="Path 11679" d="M413.3,108.792a9.658,9.658,0,0,0-1.991.2c-1.241.524-2.039,1.332-2.039,2.24,0,1.581,2.414,2.863,5.391,2.863a9.661,9.661,0,0,0,1.993-.2c1.24-.524,2.038-1.332,2.038-2.24,0-1.581-2.413-2.863-5.391-2.863" transform="translate(103.94 27.629)" fill="#f14c51"/>
      <path id="Path_11680" data-name="Path 11680" d="M413.614,115.021c-3.258,0-5.81-1.442-5.81-3.282s2.552-3.282,5.81-3.282,5.81,1.442,5.81,3.282-2.552,3.282-5.81,3.282m0-5.726c-2.695,0-4.972,1.12-4.972,2.444s2.277,2.444,4.972,2.444,4.972-1.119,4.972-2.444-2.277-2.444-4.972-2.444" transform="translate(103.568 27.545)" fill="#0d1857"/>
      <path id="Path_11681" data-name="Path 11681" d="M413.565,110.651c2.336,0,4.32.79,5.069,1.893a1.693,1.693,0,0,0,.286-.915c0-1.58-2.414-2.863-5.391-2.863s-5.391,1.283-5.391,2.863a1.728,1.728,0,0,0,.322.969c.72-1.132,2.731-1.947,5.1-1.947" transform="translate(103.653 27.623)" fill="#0d1857"/>
      <path id="Path_11682" data-name="Path 11682" d="M408.9,112.908l-.7.009a2.119,2.119,0,0,1-.395-1.2c0-1.841,2.552-3.282,5.81-3.282s5.81,1.441,5.81,3.282a2.1,2.1,0,0,1-.352,1.14l-1.117.538.418-.528c-.693-1.023-2.591-1.709-4.721-1.709s-4.094.721-4.751,1.753m4.715-3.638c-2.695,0-4.972,1.119-4.972,2.444a1.079,1.079,0,0,0,.016.188,8.694,8.694,0,0,1,9.921-.061,1.093,1.093,0,0,0,.006-.127c0-1.325-2.277-2.444-4.972-2.444" transform="translate(103.568 27.538)" fill="#0d1857"/>
      <path id="Path_11683" data-name="Path 11683" d="M410.658,117.349l-.227,3.939h4.815l4.291-1.1,2.311-.994L424,117.349l.508-2.391-.686-3.136-1.175,1.926L421,115.112l-3.534,1.663-4.487.574Z" transform="translate(104.236 28.399)" fill="#0d1857"/>
      <path id="Path_11684" data-name="Path 11684" d="M404.625,112.961l-.838,3.917-.53-2.421.707-2.732Z" transform="translate(102.413 28.374)" fill="#0d1857"/>
      <path id="Path_11685" data-name="Path 11685" d="M127.369,477.979h0l-.811-3.372h-1.94a17.659,17.659,0,0,0-17.223,0H105.53l-.888,3.328h.013a3.954,3.954,0,0,0-.16,1.062c0,3.664,5.154,6.633,11.511,6.633s11.513-2.969,11.513-6.633a3.943,3.943,0,0,0-.149-1.018" transform="translate(26.538 119.965)" fill="#fff"/>
      <path id="Path_11686" data-name="Path 11686" d="M127.132,478.06h0l-.811-3.373h-1.94a16.11,16.11,0,0,0-8.611-2.241,19.636,19.636,0,0,0-2.218.13,14.088,14.088,0,0,0-5.026,1.909H107.5c-.114.068-.236.13-.345.2h-.55l-.834,3.127h.013a3.954,3.954,0,0,0-.16,1.062c0,3.663,5.154,6.633,11.511,6.633a19.915,19.915,0,0,0,2.181-.123c4.621-.863,7.964-3.359,7.964-6.309a3.935,3.935,0,0,0-.149-1.018" transform="translate(26.825 119.985)" fill="#459ccf"/>
      <path id="Path_11687" data-name="Path 11687" d="M116.09,486.135c-6.58,0-11.931-3.164-11.931-7.052a3.846,3.846,0,0,1,.056-.642h-.021l.128-.527.971-3.642h2.064a18.132,18.132,0,0,1,17.468,0h2.147l.889,3.694a4.3,4.3,0,0,1,.161,1.116c0,3.889-5.352,7.052-11.93,7.052M105.271,477.6h.006l-.135.532a3.529,3.529,0,0,0-.145.948c0,3.427,4.977,6.215,11.094,6.215s11.093-2.788,11.093-6.215a3.452,3.452,0,0,0-.135-.909l0-.01-.734-3.053h-1.734l-.1-.068a17.246,17.246,0,0,0-16.766,0l-.1.068h-1.668Z" transform="translate(26.453 119.88)" fill="#0d1857"/>
      <path id="Path_11688" data-name="Path 11688" d="M126.45,476.008c0,3.373-4.745,6.107-10.6,6.107s-10.6-2.734-10.6-6.107S110,469.9,115.85,469.9s10.6,2.734,10.6,6.107" transform="translate(26.73 119.339)" fill="#ffb3a5"/>
      <path id="Path_11689" data-name="Path 11689" d="M126.3,475.822a4.393,4.393,0,0,0-1.536-3.155,14.872,14.872,0,0,0-7.886-2.036c-5.854,0-10.6,2.735-10.6,6.107a4.392,4.392,0,0,0,1.537,3.156,14.876,14.876,0,0,0,7.885,2.035c5.855,0,10.6-2.734,10.6-6.107" transform="translate(26.99 119.524)" fill="#fff"/>
      <path id="Path_11690" data-name="Path 11690" d="M115.936,482.62c-6.075,0-11.019-2.928-11.019-6.527s4.943-6.526,11.019-6.526,11.017,2.928,11.017,6.526-4.942,6.527-11.017,6.527m0-12.215c-5.614,0-10.181,2.552-10.181,5.688s4.567,5.689,10.181,5.689,10.181-2.552,10.181-5.689-4.567-5.688-10.181-5.688" transform="translate(26.645 119.254)" fill="#0d1857"/>
      <path id="Path_11691" data-name="Path 11691" d="M120.158,475.067c0,1.581-2.414,2.863-5.391,2.863s-5.392-1.282-5.392-2.863,2.414-2.863,5.392-2.863,5.391,1.282,5.391,2.863" transform="translate(27.778 119.924)" fill="#ffb4a6"/>
      <path id="Path_11692" data-name="Path 11692" d="M114.533,472.2a9.659,9.659,0,0,0-1.991.2c-1.241.524-2.039,1.332-2.039,2.24,0,1.581,2.414,2.863,5.391,2.863a9.66,9.66,0,0,0,1.993-.2c1.24-.524,2.038-1.332,2.038-2.24,0-1.581-2.413-2.863-5.391-2.863" transform="translate(28.064 119.924)" fill="#f14c51"/>
      <path id="Path_11693" data-name="Path 11693" d="M114.851,478.433c-3.258,0-5.81-1.442-5.81-3.282s2.552-3.282,5.81-3.282,5.81,1.442,5.81,3.282-2.552,3.282-5.81,3.282m0-5.726c-2.695,0-4.972,1.12-4.972,2.444s2.277,2.444,4.972,2.444,4.972-1.118,4.972-2.444-2.277-2.444-4.972-2.444" transform="translate(27.693 119.839)" fill="#0d1857"/>
      <path id="Path_11694" data-name="Path 11694" d="M114.8,474.062c2.336,0,4.32.79,5.069,1.894a1.693,1.693,0,0,0,.286-.915c0-1.58-2.414-2.862-5.391-2.862s-5.391,1.282-5.391,2.862a1.728,1.728,0,0,0,.322.969c.72-1.131,2.731-1.947,5.1-1.947" transform="translate(27.778 119.917)" fill="#0d1857"/>
      <path id="Path_11695" data-name="Path 11695" d="M110.136,476.32l-.7.009a2.119,2.119,0,0,1-.4-1.2c0-1.841,2.552-3.282,5.81-3.282s5.81,1.441,5.81,3.282a2.1,2.1,0,0,1-.352,1.14l-1.117.538.418-.528c-.693-1.023-2.591-1.71-4.721-1.71s-4.094.722-4.751,1.754m4.715-3.638c-2.695,0-4.972,1.118-4.972,2.444a1.077,1.077,0,0,0,.016.188,8.694,8.694,0,0,1,9.921-.061,1.081,1.081,0,0,0,.006-.127c0-1.326-2.277-2.444-4.972-2.444" transform="translate(27.693 119.833)" fill="#0d1857"/>
      <path id="Path_11696" data-name="Path 11696" d="M111.9,480.761l-.227,3.939h4.815l4.291-1.1,2.311-.994,2.153-1.846.508-2.391-.686-3.136-1.175,1.926-1.645,1.364-3.534,1.663-4.487.574Z" transform="translate(28.36 120.693)" fill="#0d1857"/>
      <path id="Path_11697" data-name="Path 11697" d="M105.861,476.373l-.838,3.917-.53-2.421.707-2.732Z" transform="translate(26.538 120.668)" fill="#0d1857"/>
      <path id="Path_11698" data-name="Path 11698" d="M401.436,502.991,371.418,485.66a4.247,4.247,0,0,1-.009-7.351l34.539-20.045,42.393,24.476-34.87,20.236a12.011,12.011,0,0,1-12.036.014" transform="translate(93.788 116.384)" fill="#0d1857"/>
      <path id="Path_11699" data-name="Path 11699" d="M377.672,455.328l-14.307-21.793,35.983-20.783,14.32,21.793Z" transform="translate(92.282 104.825)" fill="#ffb2a5"/>
      <path id="Path_11700" data-name="Path 11700" d="M377.073,458.639l-14.306-21.793,35.983-20.783,14.32,21.793Z" transform="translate(92.13 105.666)" fill="#fff"/>
      <path id="Path_11701" data-name="Path 11701" d="M377.665,455.718l-14.574-22.2,36.4-21.025,14.589,22.2Zm-13.886-22.036,14.041,21.388L413.4,434.53l-14.054-21.388Z" transform="translate(92.213 104.759)" fill="#0d1858"/>
      <path id="Path_11702" data-name="Path 11702" d="M439.616,455.425l14.307-21.793L417.94,412.849l-14.32,21.793Z" transform="translate(102.506 104.85)" fill="#ffb2a5"/>
      <path id="Path_11703" data-name="Path 11703" d="M440.18,458.639l14.306-21.793L418.5,416.063l-14.32,21.793Z" transform="translate(102.649 105.666)" fill="#fff"/>
      <path id="Path_11704" data-name="Path 11704" d="M439.764,455.814,403.346,434.79l14.587-22.2,36.4,21.025-.142.216Zm-35.73-21.188,35.576,20.54,14.039-21.386-35.561-20.541Z" transform="translate(102.436 104.784)" fill="#0d1858"/>
      <path id="Path_11705" data-name="Path 11705" d="M374.919,446.8v38.469l36,20.783v-38.47Z" transform="translate(95.217 113.473)" fill="#499dd1"/>
      <path id="Path_11706" data-name="Path 11706" d="M410.964,467.391l-36.238-20.924V485.5l36.238,20.922,36.118-20.852.122-.07V446.467ZM375.21,485.216v-37.91l35.512,20.5v37.909Z" transform="translate(95.168 113.387)" fill="#0d1858"/>
      <path id="Path_11707" data-name="Path 11707" d="M446.913,451.011l-36,20.783-36-20.783,36-20.782Z" transform="translate(95.217 109.264)" fill="#499dd1"/>
      <path id="Path_11708" data-name="Path 11708" d="M411.016,472.137l-36.492-21.068L411.017,430l.123.072,36.368,21Zm-35.5-21.068,35.5,20.5,35.5-20.5-35.5-20.5Z" transform="translate(95.116 109.205)" fill="#0d1858"/>
      <path id="Path_11709" data-name="Path 11709" d="M410.445,490.025v-6.818l-3.4,1.962,6.019-13.188,6.019,6.237-3.209,1.852v6.818Zm.631-7.909v6.818l4.172-2.409v-6.818l2.826-1.631-4.818-4.991-4.818,10.553Z" transform="translate(103.376 119.867)" fill="#fff"/>
      <path id="Path_11710" data-name="Path 11710" d="M411.008,430.229l-36.482,20.783L410.894,472l.381-.2-.267.241Z" transform="translate(95.117 109.264)" fill="#0d1858"/>
      <path id="Path_11711" data-name="Path 11711" d="M415.884,467.585l-23.854.794-36.7-20.813,24.558-.764Z" transform="translate(90.242 113.472)" fill="#ffb2a5"/>
      <path id="Path_11712" data-name="Path 11712" d="M415.7,470.191l-23.854.794-36.7-20.813,24.558-.762Z" transform="translate(90.194 114.135)" fill="#fff"/>
      <path id="Path_11713" data-name="Path 11713" d="M392.146,468.672l-.06-.034L354.635,447.4l25.489-.793.06.035,36.731,21.206ZM356.377,447.83l35.89,20.353,22.939-.762L380,447.1Z" transform="translate(90.065 113.423)" fill="#0d1858"/>
      <path id="Path_11714" data-name="Path 11714" d="M427.894,484.589l-.631.364V463.961l.628-.356Z" transform="translate(108.51 117.74)" fill="#fff"/>
      <path id="Path_11715" data-name="Path 11715" d="M403.625,467.585l23.854.794,36.7-20.813-24.556-.764Z" transform="translate(102.507 113.472)" fill="#ffb2a5"/>
      <path id="Path_11716" data-name="Path 11716" d="M403.432,470.191l23.854.794,36.7-20.813-24.558-.762Z" transform="translate(102.458 114.135)" fill="#fff"/>
      <path id="Path_11717" data-name="Path 11717" d="M427.713,468.673l-.068,0-24.7-.823,36.79-21.241.069,0,25.42.79Zm-23.059-1.253,22.939.762,35.89-20.353-23.626-.734Z" transform="translate(102.334 113.423)" fill="#0d1858"/>
      <path id="Path_11718" data-name="Path 11718" d="M388.3,456.827l19.013-10.738,18.451,10.844L407.314,467.8Z" transform="translate(98.615 113.291)" fill="#ffb2a5"/>
      <path id="Path_11719" data-name="Path 11719" d="M390.375,457.8l17.34-9.778,15.851,9.235-16.779,9.909Z" transform="translate(99.142 113.783)" fill="#fff"/>
      <path id="Path_11720" data-name="Path 11720" d="M407.371,468.188l-.139-.08-19.154-11.376,19.3-10.9.138.08L426.369,457Zm-18.453-11.294,18.452,10.654L425.276,457l-17.908-10.526Z" transform="translate(98.559 113.227)" fill="#0d1858"/>
      <path id="Path_11721" data-name="Path 11721" d="M404.366,456.329a.483.483,0,0,1,0,.915,1.751,1.751,0,0,1-1.586,0,.483.483,0,0,1,0-.915,1.75,1.75,0,0,1,1.586,0" transform="translate(102.209 115.844)" fill="#0c1859"/>
      <path id="Path_11722" data-name="Path 11722" d="M407.675,454.419a.483.483,0,0,1,0,.915,1.75,1.75,0,0,1-1.586,0,.483.483,0,0,1,0-.915,1.75,1.75,0,0,1,1.586,0" transform="translate(103.049 115.359)" fill="#0c1859"/>
      <path id="Path_11723" data-name="Path 11723" d="M410.984,452.51a.483.483,0,0,1,0,.915,1.75,1.75,0,0,1-1.586,0,.483.483,0,0,1,0-.915,1.751,1.751,0,0,1,1.586,0" transform="translate(103.889 114.874)" fill="#0c1859"/>
      <path id="Path_11724" data-name="Path 11724" d="M401.058,454.419a.483.483,0,0,1,0,.915,1.75,1.75,0,0,1-1.586,0,.483.483,0,0,1,0-.915,1.75,1.75,0,0,1,1.586,0" transform="translate(101.369 115.359)" fill="#0c1859"/>
      <path id="Path_11725" data-name="Path 11725" d="M404.366,452.51a.483.483,0,0,1,0,.915,1.75,1.75,0,0,1-1.586,0,.483.483,0,0,1,0-.915,1.751,1.751,0,0,1,1.586,0" transform="translate(102.209 114.874)" fill="#0c1859"/>
      <path id="Path_11726" data-name="Path 11726" d="M407.675,450.6a.483.483,0,0,1,0,.915,1.751,1.751,0,0,1-1.586,0,.483.483,0,0,1,0-.915,1.75,1.75,0,0,1,1.586,0" transform="translate(103.049 114.389)" fill="#0c1859"/>
      <path id="Path_11727" data-name="Path 11727" d="M397.749,452.51a.483.483,0,0,1,0,.915,1.753,1.753,0,0,1-1.587,0,.483.483,0,0,1,0-.915,1.753,1.753,0,0,1,1.587,0" transform="translate(100.528 114.874)" fill="#0c1859"/>
      <path id="Path_11728" data-name="Path 11728" d="M401.058,450.6a.483.483,0,0,1,0,.915,1.751,1.751,0,0,1-1.586,0,.483.483,0,0,1,0-.915,1.75,1.75,0,0,1,1.586,0" transform="translate(101.369 114.389)" fill="#0c1859"/>
      <path id="Path_11729" data-name="Path 11729" d="M404.366,448.691a.483.483,0,0,1,0,.915,1.751,1.751,0,0,1-1.586,0,.483.483,0,0,1,0-.915,1.75,1.75,0,0,1,1.586,0" transform="translate(102.209 113.904)" fill="#0c1859"/>
      <path id="Path_11730" data-name="Path 11730" d="M352.024,79.238l5.864,2.9a19.83,19.83,0,0,0,8.783,2.051h28.9a11,11,0,0,1,5.472,1.458l4.6,2.641a8.769,8.769,0,0,0,8.264.247,2,2,0,0,0,.166-3.489l-3.718-2.31,15.068-1.5a13.914,13.914,0,0,1,7.237,1.221l6.192,2.87a13.884,13.884,0,0,0,7.734,1.157l4.632-.638A2.017,2.017,0,0,0,452,82.126L415.749,59.679l-9.545.372Z" transform="translate(89.402 15.156)" fill="#0d1857"/>
      <path id="Path_11731" data-name="Path 11731" d="M439.8,29.8h0a5.816,5.816,0,0,1,3.425,4.257,18.153,18.153,0,0,1-.069,7.036l-2.063,9.934,1.351,7.219,2.349,1.91a1.617,1.617,0,0,1-.189,2.642l-3.916,2.349a1.284,1.284,0,0,1-1.172.075,1.281,1.281,0,0,0-1.769.914L435.29,78.069,412.655,65.041l24.919-38.312Z" transform="translate(104.8 6.788)" fill="#0d1857"/>
      <path id="Path_11732" data-name="Path 11732" d="M382.143,36.913,383.621,19a2.137,2.137,0,0,0-1.1-2.188l-1.574-.85a.974.974,0,0,0-1.332.421L373.286,31.4Z" transform="translate(94.802 4.024)" fill="#ffb2a5"/>
      <path id="Path_11733" data-name="Path 11733" d="M381.732,36.8l1.478-17.913a2.138,2.138,0,0,0-1.1-2.188l-.287.117c-.484-.261-.858-.033-1.1.459l-6.152,14.912Z" transform="translate(95.127 4.242)" fill="#fff"/>
      <path id="Path_11734" data-name="Path 11734" d="M373.044,31.548l9.368,5.828,1.512-18.308a2.385,2.385,0,0,0-1.228-2.421l-1.574-.849a1.215,1.215,0,0,0-1.663.525Zm8.952,5-8.345-5.193,5.435-12.9.429.231a12,12,0,0,1,2.361,1.534c.479.479.856,3.722.993,5.753Z" transform="translate(94.74 3.975)" fill="#0d1858"/>
      <path id="Path_11735" data-name="Path 11735" d="M427.531,42.587a2.623,2.623,0,0,1,2.553-.317h0l.011.006.046.025,10.517,4.722c.018.009.033.019.049.028l.065.035,0,.005a2.624,2.624,0,0,1,1.087,2.243,7.685,7.685,0,0,1-3.389,6.295,2.614,2.614,0,0,1-2.583.3l-.009.015-9.761-6.295-.035-.02-.051-.029v0a2.612,2.612,0,0,1-1.107-2.256,4.611,4.611,0,0,1,2.607-4.758" transform="translate(107.914 10.683)" fill="#ffb1a5"/>
      <path id="Path_11736" data-name="Path 11736" d="M424.731,47.4a2.982,2.982,0,0,0,1.014,2.311l.266.178,9.795,6.315.228.085a2.2,2.2,0,0,0,.819.152,3.538,3.538,0,0,0,1.789-.561,7.964,7.964,0,0,0,3.506-6.513,2.991,2.991,0,0,0-1-2.3l-.06-.061-.278-.159L430.07,42.009l-.01.011a2.965,2.965,0,0,0-2.606.408,4.867,4.867,0,0,0-2.724,4.976m11.139,8.27-.786-.508-.33-1.47-.005-1.408-9.538-5.535a5.393,5.393,0,0,1,.124-1.026l9.656,5.593.4-.771-9.8-5.581a4.94,4.94,0,0,1,2.114-2.124,2.4,2.4,0,0,1,2.319-.31l.218.11,0-.006L440.617,47.3l.075.049a2.4,2.4,0,0,1,.973,2.048,7.429,7.429,0,0,1-3.273,6.077,2.386,2.386,0,0,1-2.345.3Z" transform="translate(107.865 10.633)" fill="#0d1858"/>
      <path id="Path_11737" data-name="Path 11737" d="M427.6,39.448c.157.005,3.911-.036,4.832,2.63a14.2,14.2,0,0,0,2.379,3.858c.662.844.981,1.264.994,1.593h0a.555.555,0,0,1-.2.475.883.883,0,0,1-.551.158,1.949,1.949,0,0,1-.469-.061l-5.021-2.652a3.447,3.447,0,0,1-1.806-2.617l-.425-3.379Z" transform="translate(108.526 10.018)" fill="#0d1858"/>
      <path id="Path_11738" data-name="Path 11738" d="M434.675,55.546a3.718,3.718,0,0,1-.851-.3,2.821,2.821,0,0,1-1.293-2.5,7.984,7.984,0,0,1,3.515-6.529,2.637,2.637,0,0,1,3.241-.02l1.578,1.822-.695,1.075a8.1,8.1,0,0,1-3.5,5.852,4.358,4.358,0,0,1-.426.223l-.557.75Zm4.43-8.848-.025-.028c-.636-.69-1.677-.7-2.784-.039a7.446,7.446,0,0,0-3.283,6.093,2.369,2.369,0,0,0,1.045,2.1,1.8,1.8,0,0,0,.535.181l.966.334.356-.552.065-.029a3.867,3.867,0,0,0,.44-.227A7.56,7.56,0,0,0,439.691,49l.005-.063.567-.878Z" transform="translate(109.847 11.595)" fill="#0d1858"/>
      <path id="Path_11739" data-name="Path 11739" d="M434.218,53.223c.093,2.07,1.616,2.879,3.4,1.806a6.942,6.942,0,0,0,3.065-5.692c-.093-2.07-1.616-2.879-3.4-1.806a6.949,6.949,0,0,0-3.065,5.692" transform="translate(110.275 11.951)" fill="#ee4b4e"/>
      <path id="Path_11740" data-name="Path 11740" d="M434.709,52.409c.082,1.821,1.422,2.533,2.993,1.589a6.111,6.111,0,0,0,2.7-5.007c-.081-1.821-1.422-2.533-2.993-1.589a6.112,6.112,0,0,0-2.7,5.007" transform="translate(110.4 11.932)" fill="#fff"/>
      <path id="Path_11741" data-name="Path 11741" d="M435.213,55.563a2.556,2.556,0,0,1-1.187-2.281,7.223,7.223,0,0,1,3.181-5.91,2.591,2.591,0,0,1,2.582-.278,2.561,2.561,0,0,1,1.186,2.281,7.217,7.217,0,0,1-3.181,5.91,3.2,3.2,0,0,1-1.629.51,1.99,1.99,0,0,1-.952-.232m2.243-7.776a6.689,6.689,0,0,0-2.948,5.474,2.1,2.1,0,0,0,.933,1.876,2.128,2.128,0,0,0,2.1-.266,6.69,6.69,0,0,0,2.947-5.475,2.1,2.1,0,0,0-.932-1.876,1.537,1.537,0,0,0-.726-.174,2.722,2.722,0,0,0-1.378.441" transform="translate(110.227 11.901)" fill="#0d1858"/>
      <path id="Path_11742" data-name="Path 11742" d="M436.051,53.566a1.531,1.531,0,0,1-.716-1.364,4.223,4.223,0,0,1,1.86-3.455,1.547,1.547,0,0,1,1.546-.162,1.529,1.529,0,0,1,.716,1.364A4.216,4.216,0,0,1,437.6,53.4a1.919,1.919,0,0,1-.971.3,1.209,1.209,0,0,1-.577-.142" transform="translate(110.559 12.303)" fill="#0d1858"/>
      <path id="Path_11743" data-name="Path 11743" d="M443.869,16.692l2.359,1.3a1.926,1.926,0,0,1,.853,2.235L428.832,72.3,407.56,59.389l23.067-23.7,11.611-18.579a1.19,1.19,0,0,1,1.631-.416" transform="translate(103.506 4.197)" fill="#ffb2a5"/>
      <path id="Path_11744" data-name="Path 11744" d="M444.534,18.487l.958.567a1.924,1.924,0,0,1,.853,2.235L428.1,73.362,408.225,61.184l23.067-23.7L442.9,18.9a1.19,1.19,0,0,1,1.631-.416" transform="translate(103.675 4.653)" fill="#fff"/>
      <path id="Path_11745" data-name="Path 11745" d="M407.253,59.487l21.786,13.224,18.347-52.356a2.158,2.158,0,0,0-.958-2.52l-2.361-1.305a1.431,1.431,0,0,0-1.96.5L430.513,35.586Zm21.528,12.5-20.757-12.6,22.885-23.526L440.572,20.4c.71.39,3.032,1.719,3.675,2.735.46.727.019,3.788-.277,5.509Z" transform="translate(103.428 4.148)" fill="#0d1858"/>
      <path id="Path_11746" data-name="Path 11746" d="M391.893,70.7a2.627,2.627,0,0,1,2.553-.317h0l.011.006.046.025,10.517,4.722c.018.009.033.019.049.028l.065.035,0,0a2.628,2.628,0,0,1,1.087,2.245,7.685,7.685,0,0,1-3.389,6.295,2.613,2.613,0,0,1-2.583.3l-.009.015-9.761-6.295-.035-.02-.051-.029v0a2.612,2.612,0,0,1-1.107-2.256,4.611,4.611,0,0,1,2.607-4.758" transform="translate(98.863 17.824)" fill="#ffb1a5"/>
      <path id="Path_11747" data-name="Path 11747" d="M389.094,75.522a2.981,2.981,0,0,0,1.014,2.31l.266.178,9.795,6.316.228.085a2.232,2.232,0,0,0,.82.152A3.537,3.537,0,0,0,403.005,84a7.964,7.964,0,0,0,3.506-6.513,3,3,0,0,0-1-2.3l-.06-.061-.278-.158-10.738-4.842-.009.011a2.962,2.962,0,0,0-2.607.406,4.867,4.867,0,0,0-2.724,4.977m11.139,8.269-.786-.508-.329-1.47-.005-1.407-9.539-5.535a5.367,5.367,0,0,1,.124-1.026l9.656,5.591.4-.771-9.8-5.581a4.947,4.947,0,0,1,2.114-2.124,2.407,2.407,0,0,1,2.319-.308l.218.109,0-.006,10.374,4.658.077.049a2.41,2.41,0,0,1,.972,2.049,7.426,7.426,0,0,1-3.273,6.075,2.38,2.38,0,0,1-2.345.3Z" transform="translate(98.814 17.774)" fill="#0d1858"/>
      <path id="Path_11748" data-name="Path 11748" d="M391.959,67.566c.157.005,3.912-.036,4.833,2.63a14.225,14.225,0,0,0,2.378,3.858c.663.844.982,1.264.994,1.593h0a.554.554,0,0,1-.2.475.883.883,0,0,1-.55.158,2.008,2.008,0,0,1-.469-.061l-5.021-2.652a3.452,3.452,0,0,1-1.807-2.617l-.424-3.379Z" transform="translate(99.476 17.159)" fill="#0d1858"/>
      <path id="Path_11749" data-name="Path 11749" d="M399.038,83.663a3.659,3.659,0,0,1-.851-.3,2.821,2.821,0,0,1-1.293-2.5,7.984,7.984,0,0,1,3.515-6.529,2.637,2.637,0,0,1,3.241-.02l1.578,1.822-.695,1.075a8.1,8.1,0,0,1-3.5,5.852,4.351,4.351,0,0,1-.426.223l-.557.75Zm4.43-8.848-.025-.028c-.636-.69-1.677-.7-2.785-.04a7.452,7.452,0,0,0-3.282,6.094,2.369,2.369,0,0,0,1.045,2.1,1.791,1.791,0,0,0,.535.181l.966.334.356-.552.065-.029a3.867,3.867,0,0,0,.44-.227,7.56,7.56,0,0,0,3.27-5.532l.005-.063.567-.878Z" transform="translate(100.796 18.735)" fill="#0d1858"/>
      <path id="Path_11750" data-name="Path 11750" d="M398.581,81.34c.093,2.07,1.616,2.88,3.4,1.806a6.944,6.944,0,0,0,3.066-5.692c-.094-2.07-1.618-2.878-3.4-1.8a6.949,6.949,0,0,0-3.065,5.69" transform="translate(101.225 19.092)" fill="#ee4b4e"/>
      <path id="Path_11751" data-name="Path 11751" d="M399.071,80.526c.082,1.821,1.422,2.533,2.993,1.589a6.112,6.112,0,0,0,2.7-5.007c-.082-1.821-1.422-2.533-2.993-1.589a6.113,6.113,0,0,0-2.7,5.007" transform="translate(101.349 19.073)" fill="#fff"/>
      <path id="Path_11752" data-name="Path 11752" d="M399.575,83.681a2.557,2.557,0,0,1-1.187-2.281,7.223,7.223,0,0,1,3.181-5.91,2.591,2.591,0,0,1,2.582-.278,2.561,2.561,0,0,1,1.186,2.281,7.217,7.217,0,0,1-3.181,5.91,3.2,3.2,0,0,1-1.629.51,1.987,1.987,0,0,1-.952-.232m2.243-7.776a6.689,6.689,0,0,0-2.948,5.474,2.1,2.1,0,0,0,.933,1.876,2.129,2.129,0,0,0,2.1-.266,6.688,6.688,0,0,0,2.948-5.474,2.1,2.1,0,0,0-.933-1.877,1.528,1.528,0,0,0-.725-.174,2.722,2.722,0,0,0-1.378.441" transform="translate(101.176 19.042)" fill="#0d1858"/>
      <path id="Path_11753" data-name="Path 11753" d="M400.413,81.683a1.53,1.53,0,0,1-.716-1.364,4.224,4.224,0,0,1,1.86-3.455A1.549,1.549,0,0,1,403.1,76.7a1.531,1.531,0,0,1,.715,1.364,4.216,4.216,0,0,1-1.858,3.455,1.9,1.9,0,0,1-.971.3,1.216,1.216,0,0,1-.577-.142" transform="translate(101.509 19.444)" fill="#0d1858"/>
      <path id="Path_11754" data-name="Path 11754" d="M434.587,78.333l1.679.951.025,2.778a.7.7,0,0,1-.135.451l-.053.056a.326.326,0,0,1-.11.066l-.356.2-.188-.317-.341-.192a1.42,1.42,0,0,1-.617-1.144l-.013-1.435-.39-1.127Z" transform="translate(110.244 19.894)" fill="#0d1858"/>
      <path id="Path_11755" data-name="Path 11755" d="M434.784,82.355l.459.26c.3.172.547-.015.543-.418l-.024-2.71-1.557-.882.024,2.71a1.31,1.31,0,0,0,.556,1.04" transform="translate(110.273 19.963)" fill="#499dd1"/>
      <path id="Path_11756" data-name="Path 11756" d="M435.209,82.763l-.459-.26a1.425,1.425,0,0,1-.618-1.145l-.025-2.918,1.8,1.019.024,2.779a.6.6,0,0,1-.245.548.391.391,0,0,1-.2.055.565.565,0,0,1-.275-.079m-.856-3.906.021,2.5a1.2,1.2,0,0,0,.5.935l.459.26a.243.243,0,0,0,.237.026.378.378,0,0,0,.125-.339l-.023-2.638Z" transform="translate(110.248 19.921)" fill="#0d1858"/>
      <path id="Path_11757" data-name="Path 11757" d="M434.953,83.515l-.265-.661.609-.346a.55.55,0,0,1,.079-.044l.055-.031v0a.736.736,0,0,1,.754.213,2.255,2.255,0,0,1,.617,2.006.82.82,0,0,1-.376.557l-.1.066-.542.311-.262-.655a2.317,2.317,0,0,1-.568-1.419" transform="translate(110.396 20.927)" fill="#499dd1"/>
      <path id="Path_11758" data-name="Path 11758" d="M434.993,85.51a.976.976,0,0,0,.641.285.628.628,0,0,0,.2-.03.648.648,0,0,0,.1-.05.131.131,0,0,0,.031-.01l.627-.366a.935.935,0,0,0,.429-.629,2.391,2.391,0,0,0-.653-2.124.907.907,0,0,0-.757-.271l-.193.069a.531.531,0,0,0-.093.055l-.574.327c-.008.01,0,0,0,0a.956.956,0,0,0-.411.622,2.391,2.391,0,0,0,.653,2.123m1.367-.31-.023.013a1.362,1.362,0,0,0,.048-.138,2.394,2.394,0,0,0-.653-2.124,1.143,1.143,0,0,0-.4-.241l.125-.071a.487.487,0,0,1,.055-.033l.064-.033a.433.433,0,0,1,.156-.029.735.735,0,0,1,.474.219,2.124,2.124,0,0,1,.579,1.887.7.7,0,0,1-.316.479Z" transform="translate(110.295 20.902)" fill="#0d1858"/>
      <path id="Path_11759" data-name="Path 11759" d="M435.1,84.5a.3.3,0,0,0,.529-.166,1,1,0,0,0-.273-.89.3.3,0,0,0-.529.166,1,1,0,0,0,.273.89" transform="translate(110.427 21.163)" fill="#fff"/>
      <path id="Path_11760" data-name="Path 11760" d="M433.614,84.237l-.265-.661.609-.346a.549.549,0,0,1,.079-.044l.055-.031v0a.734.734,0,0,1,.754.213,2.256,2.256,0,0,1,.617,2.006.82.82,0,0,1-.376.557l-.1.066-.54.311-.262-.656a2.31,2.31,0,0,1-.568-1.418" transform="translate(110.056 21.11)" fill="#499dd1"/>
      <path id="Path_11761" data-name="Path 11761" d="M433.654,86.231a.97.97,0,0,0,.641.285.628.628,0,0,0,.2-.03.649.649,0,0,0,.1-.05.131.131,0,0,0,.031-.01l.627-.366a.935.935,0,0,0,.429-.63,2.391,2.391,0,0,0-.653-2.124.907.907,0,0,0-.757-.271l-.193.069a.532.532,0,0,0-.093.055l-.574.329c-.008.009,0,0,0,0a.953.953,0,0,0-.411.621,2.391,2.391,0,0,0,.653,2.123m1.367-.31-.023.013a1.385,1.385,0,0,0,.048-.138,2.394,2.394,0,0,0-.653-2.124,1.143,1.143,0,0,0-.4-.241l.125-.071a.391.391,0,0,1,.055-.033l.064-.033a.426.426,0,0,1,.154-.028.733.733,0,0,1,.475.218,2.124,2.124,0,0,1,.579,1.887.7.7,0,0,1-.316.479Z" transform="translate(109.955 21.085)" fill="#0d1858"/>
      <path id="Path_11762" data-name="Path 11762" d="M433.764,85.22a.3.3,0,0,0,.529-.166,1,1,0,0,0-.273-.89.3.3,0,0,0-.529.166,1,1,0,0,0,.273.89" transform="translate(110.087 21.346)" fill="#fff"/>
      <path id="Path_11763" data-name="Path 11763" d="M433.738,82.576l.609-.065.139-.084A.559.559,0,0,1,435,82.4l.321.169.806.1v.489a.284.284,0,0,1-.15.206l-.6.361a.571.571,0,0,1-.292.076.462.462,0,0,1-.221-.05l-.963-.507a.279.279,0,0,1-.16-.255v-.414Z" transform="translate(110.154 20.914)" fill="#0d1858"/>
      <path id="Path_11764" data-name="Path 11764" d="M435.908,82.67l-.989-.52a.433.433,0,0,0-.393.024l-.6.359c-.115.069-.125.171-.024.227l.988.52a.44.44,0,0,0,.394-.023l.6-.36c.115-.069.127-.171.025-.227" transform="translate(110.179 20.854)" fill="#499dd1"/>
      <path id="Path_11765" data-name="Path 11765" d="M434.859,83.41l-.991-.52a.233.233,0,0,1-.132-.2.276.276,0,0,1,.152-.236l.6-.359a.551.551,0,0,1,.512-.026l.988.52h0a.238.238,0,0,1,.132.2.279.279,0,0,1-.153.236l-.6.36a.583.583,0,0,1-.291.076.463.463,0,0,1-.221-.051m.025-1.13a.313.313,0,0,0-.272.021l-.6.359a.2.2,0,0,0-.028.019l.988.518a.316.316,0,0,0,.272-.02l.6-.359.028-.018Z" transform="translate(110.154 20.829)" fill="#0d1858"/>
      <path id="Path_11766" data-name="Path 11766" d="M434.787,83.587h0a.266.266,0,0,0,.265-.266V79.633a.265.265,0,1,0-.53,0v3.688a.266.266,0,0,0,.266.266" transform="translate(110.354 20.157)" fill="#499dd1"/>
      <path id="Path_11767" data-name="Path 11767" d="M434.424,83.345V79.657a.387.387,0,0,1,.774,0v3.688a.387.387,0,1,1-.774,0m.242-3.688v3.688a.145.145,0,1,0,.29,0V79.657a.145.145,0,1,0-.29,0" transform="translate(110.329 20.132)" fill="#0d1858"/>
      <path id="Path_11768" data-name="Path 11768" d="M433.709,78.782l1.679.951.025,2.778a.7.7,0,0,1-.135.451l0,.02-.055.036a.326.326,0,0,1-.11.066l-.356.2-.188-.317-.341-.192a1.421,1.421,0,0,1-.617-1.144L433.6,80.2l-.39-1.127Z" transform="translate(110.021 20.008)" fill="#0d1858"/>
      <path id="Path_11769" data-name="Path 11769" d="M433.906,82.805l.459.26c.3.172.547-.015.543-.418l-.024-2.71-1.557-.882.024,2.71a1.31,1.31,0,0,0,.556,1.04" transform="translate(110.05 20.078)" fill="#499dd1"/>
      <path id="Path_11770" data-name="Path 11770" d="M434.33,83.212l-.459-.26a1.421,1.421,0,0,1-.617-1.145l-.026-2.918,1.8,1.019.024,2.779a.6.6,0,0,1-.245.548.39.39,0,0,1-.2.055.566.566,0,0,1-.276-.079m-.856-3.906.021,2.5a1.2,1.2,0,0,0,.5.935l.459.26a.243.243,0,0,0,.237.026.379.379,0,0,0,.125-.339l-.023-2.638Z" transform="translate(110.025 20.035)" fill="#0d1858"/>
      <path id="Path_11771" data-name="Path 11771" d="M458.568,74.386c6.781,6.191,11.4,18.593,10.492,21.3-1.22,3.636-4.6,2.4-8.822,1.418-8.844-2.064-35.28-16.529-51.79-26.11s-23.64-13.42-27.566-16.363c-6.781-5.08-16.043-22.867-18.279-28.745-1.639-4.306,2.8-4.128,6.928-2.507S398.867,38.86,420.389,50.8s30.068,16.179,38.18,23.586" transform="translate(92 5.669)" fill="#499dd1"/>
      <path id="Path_11772" data-name="Path 11772" d="M374.542,30.8a2.918,2.918,0,0,1,1.243-2.836c9.3,4.788,23.9,13.05,41.051,22.565,21.523,11.94,30.068,16.179,38.18,23.586,0,0,3,3.065.838,4.243S449.884,79,437.241,72s-53.618-30.6-53.618-30.6-8.2-5.1-9.081-10.6" transform="translate(95.111 7.102)" fill="#fff"/>
      <path id="Path_11773" data-name="Path 11773" d="M437.407,71.261c-12.5-6.926-53.212-30.361-53.628-30.6-.339-.211-8.3-5.22-9.193-10.769a3.142,3.142,0,0,1,1.33-3.062l.122-.1.14.073c7.045,3.626,17.247,9.311,29.059,15.893,3.823,2.129,7.836,4.365,12,6.675,2.982,1.654,5.716,3.16,8.232,4.548,15.781,8.7,22.984,12.67,30,19.08.077.078,1.891,1.951,1.67,3.432a1.606,1.606,0,0,1-.89,1.194,4.448,4.448,0,0,1-2.194.514c-2.676,0-7.264-1.675-16.65-6.877M375.063,29.814h0c.856,5.331,8.889,10.384,8.963,10.43.409.236,41.119,23.67,53.615,30.594,12.367,6.852,16.289,7.5,18.378,6.36a1.13,1.13,0,0,0,.644-.84c.186-1.243-1.521-3.006-1.529-3.013-6.967-6.361-14.153-10.324-29.9-19-2.518-1.388-5.252-2.9-8.232-4.549-4.163-2.31-8.176-4.546-12-6.675-11.73-6.536-21.87-12.186-28.9-15.813a2.61,2.61,0,0,0-1.036,2.509" transform="translate(95.121 6.788)" fill="#0d1858"/>
      <path id="Path_11774" data-name="Path 11774" d="M427.39,69.57l.419.242c.374.217.677-.011.678-.51V68.263a1.621,1.621,0,0,0-.675-1.3l-.419-.242c-.374-.217-.677.011-.678.51v1.038a1.621,1.621,0,0,0,.675,1.3" transform="translate(108.371 16.925)" fill="#fff"/>
      <path id="Path_11775" data-name="Path 11775" d="M427.736,69.3l-.419-.243a1.859,1.859,0,0,1-.8-1.5l0-1.038a.832.832,0,0,1,.356-.756.664.664,0,0,1,.685.036l.419.243a1.862,1.862,0,0,1,.8,1.5l0,1.038a.829.829,0,0,1-.356.756.576.576,0,0,1-.293.079.783.783,0,0,1-.391-.115m-.614-3.124c-.051.03-.113.137-.114.339l0,1.038a1.382,1.382,0,0,0,.555,1.086l.418.242c.049.029.14.071.2.036s.113-.137.114-.339l0-1.037a1.386,1.386,0,0,0-.556-1.087l-.419-.242a.314.314,0,0,0-.147-.049.114.114,0,0,0-.054.013" transform="translate(108.322 16.68)" fill="#0d1858"/>
      <path id="Path_11776" data-name="Path 11776" d="M424.694,68l.419.242c.374.217.677-.011.678-.51V66.7a1.621,1.621,0,0,0-.675-1.3l-.419-.242c-.374-.217-.677.011-.678.51v1.038a1.621,1.621,0,0,0,.675,1.3" transform="translate(107.686 16.528)" fill="#fff"/>
      <path id="Path_11777" data-name="Path 11777" d="M425.04,67.734l-.419-.243a1.866,1.866,0,0,1-.8-1.5l0-1.038a.832.832,0,0,1,.356-.756.664.664,0,0,1,.685.036l.419.243a1.859,1.859,0,0,1,.8,1.5l0,1.038a.83.83,0,0,1-.356.756.576.576,0,0,1-.293.079.782.782,0,0,1-.391-.115m-.613-3.124c-.053.03-.114.137-.114.339l0,1.038a1.38,1.38,0,0,0,.556,1.086l.418.242c.039.023.139.071.2.036s.113-.137.115-.339V65.976a1.386,1.386,0,0,0-.555-1.087l-.419-.242a.328.328,0,0,0-.145-.049.107.107,0,0,0-.054.013" transform="translate(107.637 16.283)" fill="#0d1858"/>
      <path id="Path_11778" data-name="Path 11778" d="M422.667,66.826l.419.242c.374.217.677-.011.677-.51l0-1.038a1.621,1.621,0,0,0-.675-1.3l-.419-.242c-.374-.217-.677.011-.678.51V65.53a1.621,1.621,0,0,0,.675,1.3" transform="translate(107.172 16.228)" fill="#fff"/>
      <path id="Path_11779" data-name="Path 11779" d="M423.013,66.555l-.419-.243a1.859,1.859,0,0,1-.8-1.5V63.769a.83.83,0,0,1,.357-.756.664.664,0,0,1,.685.036l.419.243a1.862,1.862,0,0,1,.8,1.5l0,1.037a.83.83,0,0,1-.356.757.575.575,0,0,1-.293.079.782.782,0,0,1-.391-.115m-.614-3.124c-.053.03-.113.137-.114.339l0,1.038a1.378,1.378,0,0,0,.556,1.086l.418.242c.04.023.139.071.2.036s.113-.137.113-.339l0-1.038a1.381,1.381,0,0,0-.554-1.086l-.419-.242a.336.336,0,0,0-.148-.049.105.105,0,0,0-.053.013" transform="translate(107.123 15.983)" fill="#0d1858"/>
      <path id="Path_11780" data-name="Path 11780" d="M420.582,65.631l.419.243c.374.217.677-.011.677-.51l0-1.04a1.62,1.62,0,0,0-.675-1.294l-.419-.243c-.374-.216-.677.013-.678.51l0,1.04a1.621,1.621,0,0,0,.676,1.294" transform="translate(106.642 15.925)" fill="#fff"/>
      <path id="Path_11781" data-name="Path 11781" d="M420.928,65.362l-.419-.243a1.859,1.859,0,0,1-.795-1.5l0-1.038a.827.827,0,0,1,.356-.756.667.667,0,0,1,.685.036l.419.243a1.862,1.862,0,0,1,.8,1.5l0,1.037a.832.832,0,0,1-.356.757.576.576,0,0,1-.293.079.782.782,0,0,1-.391-.115m-.614-3.124c-.053.03-.113.137-.114.339l0,1.038a1.384,1.384,0,0,0,.554,1.086l.419.242c.04.023.14.073.2.036s.113-.137.113-.339l0-1.038a1.381,1.381,0,0,0-.554-1.086l-.419-.242a.314.314,0,0,0-.147-.05.1.1,0,0,0-.054.014" transform="translate(106.593 15.68)" fill="#0d1858"/>
      <path id="Path_11782" data-name="Path 11782" d="M418.554,64.454l.419.242c.374.217.677-.011.678-.51l0-1.038a1.625,1.625,0,0,0-.676-1.3l-.419-.242c-.374-.217-.677.011-.678.51v1.038a1.621,1.621,0,0,0,.675,1.3" transform="translate(106.127 15.626)" fill="#fff"/>
      <path id="Path_11783" data-name="Path 11783" d="M418.9,64.183l-.419-.243a1.862,1.862,0,0,1-.8-1.5l0-1.038a.831.831,0,0,1,.355-.756.664.664,0,0,1,.686.036l.419.242a1.866,1.866,0,0,1,.8,1.506l0,1.038a.828.828,0,0,1-.356.756.575.575,0,0,1-.293.078.781.781,0,0,1-.391-.114m-.614-3.124c-.053.03-.113.137-.113.339l0,1.038a1.376,1.376,0,0,0,.554,1.085l.419.243c.049.029.14.07.2.036s.113-.137.114-.339l0-1.038a1.382,1.382,0,0,0-.556-1.086l-.418-.242a.326.326,0,0,0-.148-.049.11.11,0,0,0-.054.013" transform="translate(106.078 15.381)" fill="#0d1858"/>
      <path id="Path_11784" data-name="Path 11784" d="M416.469,63.26l.419.242c.374.217.677-.011.678-.51V61.953a1.621,1.621,0,0,0-.675-1.3l-.419-.242c-.374-.217-.677.011-.678.51v1.038a1.621,1.621,0,0,0,.675,1.3" transform="translate(105.598 15.323)" fill="#fff"/>
      <path id="Path_11785" data-name="Path 11785" d="M416.815,62.99l-.419-.243a1.862,1.862,0,0,1-.795-1.5l0-1.038a.833.833,0,0,1,.356-.757.667.667,0,0,1,.685.038l.419.242a1.865,1.865,0,0,1,.795,1.506l0,1.038a.832.832,0,0,1-.356.756.587.587,0,0,1-.293.078.78.78,0,0,1-.391-.114m-.614-3.124c-.053.03-.114.137-.114.339v1.038a1.376,1.376,0,0,0,.554,1.085l.419.243c.049.029.14.071.2.036s.113-.137.114-.339l0-1.038a1.38,1.38,0,0,0-.556-1.086L416.4,59.9a.332.332,0,0,0-.148-.05.1.1,0,0,0-.054.014" transform="translate(105.548 15.078)" fill="#0d1858"/>
      <path id="Path_11786" data-name="Path 11786" d="M414.442,62.082l.419.242c.374.217.677-.011.677-.51l0-1.038a1.621,1.621,0,0,0-.675-1.3l-.419-.243c-.374-.216-.677.013-.678.512l0,1.038a1.625,1.625,0,0,0,.676,1.3" transform="translate(105.082 15.023)" fill="#fff"/>
      <path id="Path_11787" data-name="Path 11787" d="M414.788,61.811l-.42-.243a1.869,1.869,0,0,1-.8-1.5l0-1.038a.833.833,0,0,1,.355-.756.664.664,0,0,1,.685.036l.42.242a1.87,1.87,0,0,1,.8,1.506l0,1.038a.833.833,0,0,1-.357.756.572.572,0,0,1-.293.079.778.778,0,0,1-.39-.115m-.614-3.124c-.053.03-.114.137-.114.339l0,1.038a1.386,1.386,0,0,0,.556,1.086l.42.242c.039.023.138.07.2.036s.113-.137.114-.339V60.052a1.384,1.384,0,0,0-.554-1.086l-.419-.242a.313.313,0,0,0-.147-.049.107.107,0,0,0-.054.013" transform="translate(105.033 14.778)" fill="#0d1858"/>
      <path id="Path_11788" data-name="Path 11788" d="M412.357,60.888l.419.242c.374.217.677-.011.678-.51V59.581a1.621,1.621,0,0,0-.675-1.3l-.419-.243c-.374-.216-.677.013-.678.512v1.038a1.621,1.621,0,0,0,.675,1.3" transform="translate(104.553 14.72)" fill="#fff"/>
      <path id="Path_11789" data-name="Path 11789" d="M412.7,60.617l-.419-.243a1.862,1.862,0,0,1-.795-1.5l0-1.038a.83.83,0,0,1,.356-.756.667.667,0,0,1,.685.036l.419.242a1.867,1.867,0,0,1,.8,1.506l0,1.038a.829.829,0,0,1-.356.756.575.575,0,0,1-.293.079.782.782,0,0,1-.391-.115m-.614-3.124c-.053.03-.113.137-.114.339l0,1.038a1.386,1.386,0,0,0,.555,1.086l.419.242c.039.023.138.071.2.036s.113-.137.114-.339l0-1.038a1.382,1.382,0,0,0-.556-1.086l-.418-.242a.318.318,0,0,0-.148-.049.114.114,0,0,0-.054.013" transform="translate(104.504 14.475)" fill="#0d1858"/>
      <path id="Path_11790" data-name="Path 11790" d="M410.329,59.71l.419.242c.374.217.677-.011.678-.51l0-1.038a1.625,1.625,0,0,0-.676-1.3l-.419-.242c-.374-.217-.677.011-.677.51l0,1.038a1.621,1.621,0,0,0,.675,1.3" transform="translate(104.038 14.421)" fill="#fff"/>
      <path id="Path_11791" data-name="Path 11791" d="M410.675,59.439l-.419-.243a1.862,1.862,0,0,1-.795-1.5l0-1.038a.829.829,0,0,1,.356-.756.664.664,0,0,1,.685.036l.419.243a1.862,1.862,0,0,1,.795,1.5l0,1.038a.83.83,0,0,1-.356.756.576.576,0,0,1-.293.079.783.783,0,0,1-.391-.115m-.614-3.124c-.053.03-.113.137-.114.339l0,1.038a1.382,1.382,0,0,0,.556,1.086l.419.242c.049.029.14.069.2.036s.113-.137.114-.339l0-1.038a1.382,1.382,0,0,0-.556-1.086l-.419-.242a.314.314,0,0,0-.147-.049.114.114,0,0,0-.054.013" transform="translate(103.989 14.176)" fill="#0d1858"/>
      <path id="Path_11792" data-name="Path 11792" d="M408.245,58.489l.418.243c.375.217.678-.011.68-.51v-1.04a1.625,1.625,0,0,0-.676-1.294l-.418-.243c-.374-.216-.677.013-.677.51l0,1.04a1.621,1.621,0,0,0,.676,1.294" transform="translate(103.509 14.111)" fill="#fff"/>
      <path id="Path_11793" data-name="Path 11793" d="M408.59,58.22l-.419-.243a1.864,1.864,0,0,1-.8-1.5l0-1.038a.829.829,0,0,1,.356-.756.664.664,0,0,1,.685.036l.419.242a1.865,1.865,0,0,1,.8,1.506l0,1.038a.829.829,0,0,1-.356.756.576.576,0,0,1-.293.079.782.782,0,0,1-.391-.115m-.614-3.124c-.053.03-.113.137-.114.339l0,1.038a1.382,1.382,0,0,0,.555,1.086l.419.242c.049.029.14.071.2.036s.113-.137.114-.339l0-1.038a1.38,1.38,0,0,0-.556-1.086l-.419-.242a.313.313,0,0,0-.147-.049.1.1,0,0,0-.054.013" transform="translate(103.46 13.866)" fill="#0d1858"/>
      <path id="Path_11794" data-name="Path 11794" d="M406.217,57.312l.419.242c.374.217.677-.011.678-.51V56a1.621,1.621,0,0,0-.675-1.3l-.419-.242c-.374-.217-.677.011-.678.51v1.038a1.621,1.621,0,0,0,.675,1.3" transform="translate(102.994 13.812)" fill="#fff"/>
      <path id="Path_11795" data-name="Path 11795" d="M406.563,57.041l-.419-.243a1.862,1.862,0,0,1-.8-1.5l0-1.038a.829.829,0,0,1,.356-.756.664.664,0,0,1,.685.036l.419.243a1.86,1.86,0,0,1,.795,1.5l0,1.038a.829.829,0,0,1-.356.756.574.574,0,0,1-.293.078.781.781,0,0,1-.391-.114m-.614-3.124c-.053.03-.114.137-.114.339l0,1.038a1.382,1.382,0,0,0,.556,1.086l.418.242c.049.029.14.071.2.036s.113-.137.114-.339l0-1.038a1.386,1.386,0,0,0-.555-1.086l-.419-.242a.314.314,0,0,0-.147-.049.114.114,0,0,0-.054.013" transform="translate(102.945 13.567)" fill="#0d1858"/>
      <path id="Path_11796" data-name="Path 11796" d="M404.132,56.118l.419.242c.374.217.677-.011.678-.51V54.811a1.621,1.621,0,0,0-.675-1.3l-.419-.242c-.374-.217-.677.011-.678.51v1.038a1.621,1.621,0,0,0,.675,1.3" transform="translate(102.464 13.509)" fill="#fff"/>
      <path id="Path_11797" data-name="Path 11797" d="M404.478,55.848l-.419-.243a1.862,1.862,0,0,1-.8-1.5l0-1.038a.827.827,0,0,1,.356-.756.667.667,0,0,1,.685.036l.419.242a1.866,1.866,0,0,1,.8,1.506l0,1.038a.832.832,0,0,1-.356.756.574.574,0,0,1-.293.078.781.781,0,0,1-.391-.114m-.614-3.124c-.053.03-.114.137-.114.339l0,1.038a1.382,1.382,0,0,0,.556,1.086l.418.242c.049.029.14.07.2.036s.113-.137.114-.339l0-1.038A1.38,1.38,0,0,0,404.483,53l-.419-.242a.314.314,0,0,0-.147-.049.114.114,0,0,0-.054.013" transform="translate(102.415 13.264)" fill="#0d1858"/>
      <path id="Path_11798" data-name="Path 11798" d="M402.1,54.94l.419.242c.374.217.677-.011.677-.51l0-1.038a1.621,1.621,0,0,0-.675-1.3l-.419-.243c-.374-.216-.677.013-.678.512v1.038a1.621,1.621,0,0,0,.675,1.3" transform="translate(101.949 13.21)" fill="#fff"/>
      <path id="Path_11799" data-name="Path 11799" d="M402.45,54.669l-.419-.243a1.861,1.861,0,0,1-.8-1.5l0-1.038a.829.829,0,0,1,.356-.756.664.664,0,0,1,.685.036l.419.242a1.865,1.865,0,0,1,.8,1.506l0,1.037a.83.83,0,0,1-.356.757.574.574,0,0,1-.293.078.78.78,0,0,1-.391-.114m-.614-3.124c-.053.03-.113.137-.114.339l0,1.038a1.382,1.382,0,0,0,.555,1.086l.418.242c.04.023.139.071.2.036s.113-.137.113-.339l0-1.038a1.379,1.379,0,0,0-.554-1.086l-.419-.242a.314.314,0,0,0-.147-.05.1.1,0,0,0-.054.014" transform="translate(101.9 12.965)" fill="#0d1858"/>
      <path id="Path_11800" data-name="Path 11800" d="M400.02,53.746l.419.242c.374.217.677-.011.677-.51l0-1.038a1.621,1.621,0,0,0-.675-1.3l-.419-.242c-.374-.217-.677.011-.678.51l0,1.038a1.625,1.625,0,0,0,.676,1.3" transform="translate(101.42 12.906)" fill="#fff"/>
      <path id="Path_11801" data-name="Path 11801" d="M400.366,53.475l-.419-.243a1.861,1.861,0,0,1-.8-1.5l0-1.038a.829.829,0,0,1,.356-.756.667.667,0,0,1,.685.036l.419.243a1.86,1.86,0,0,1,.8,1.5l0,1.038a.827.827,0,0,1-.356.756.574.574,0,0,1-.293.078.78.78,0,0,1-.391-.114m-.614-3.124c-.053.03-.113.137-.114.339l0,1.038a1.382,1.382,0,0,0,.556,1.086l.418.242c.049.029.14.071.2.036s.113-.137.114-.339l0-1.038a1.386,1.386,0,0,0-.556-1.086l-.419-.242a.313.313,0,0,0-.147-.049.114.114,0,0,0-.054.013" transform="translate(101.371 12.661)" fill="#0d1858"/>
      <path id="Path_11802" data-name="Path 11802" d="M397.992,52.568l.419.242c.374.217.677-.011.678-.51V51.261a1.621,1.621,0,0,0-.675-1.3L398,49.724c-.374-.217-.677.011-.678.51l0,1.038a1.625,1.625,0,0,0,.676,1.3" transform="translate(100.905 12.607)" fill="#fff"/>
      <path id="Path_11803" data-name="Path 11803" d="M398.337,52.3l-.419-.243a1.864,1.864,0,0,1-.8-1.5l0-1.038a.829.829,0,0,1,.356-.756.664.664,0,0,1,.685.036l.419.242a1.861,1.861,0,0,1,.8,1.506v1.038a.834.834,0,0,1-.357.756.574.574,0,0,1-.293.078.784.784,0,0,1-.391-.114m-.613-3.124c-.053.03-.114.137-.114.339l0,1.038a1.381,1.381,0,0,0,.554,1.086l.419.242c.049.028.138.071.2.036s.114-.137.114-.339l0-1.038a1.383,1.383,0,0,0-.554-1.086l-.419-.242a.326.326,0,0,0-.147-.049.107.107,0,0,0-.054.013" transform="translate(100.856 12.362)" fill="#0d1858"/>
      <path id="Path_11804" data-name="Path 11804" d="M395.907,51.374l.419.242c.374.217.677-.011.678-.51V50.067a1.621,1.621,0,0,0-.675-1.3l-.419-.242c-.374-.217-.677.011-.678.51l0,1.038a1.625,1.625,0,0,0,.676,1.3" transform="translate(100.375 12.304)" fill="#fff"/>
      <path id="Path_11805" data-name="Path 11805" d="M396.253,51.1l-.419-.243a1.864,1.864,0,0,1-.8-1.5l0-1.038a.829.829,0,0,1,.356-.756.664.664,0,0,1,.685.036l.419.242a1.861,1.861,0,0,1,.8,1.506l0,1.037a.832.832,0,0,1-.355.757.582.582,0,0,1-.295.078.78.78,0,0,1-.391-.114m-.614-3.124c-.051.03-.113.137-.113.339l0,1.038a1.381,1.381,0,0,0,.554,1.086l.419.242c.049.029.142.07.2.035s.114-.135.114-.337l0-1.038a1.383,1.383,0,0,0-.554-1.086l-.419-.242a.327.327,0,0,0-.148-.049.114.114,0,0,0-.054.013" transform="translate(100.326 12.059)" fill="#0d1858"/>
      <path id="Path_11806" data-name="Path 11806" d="M393.879,50.195l.419.242c.374.217.677-.011.677-.51l0-1.038a1.621,1.621,0,0,0-.675-1.3l-.419-.242c-.374-.217-.677.011-.678.51l0,1.038a1.625,1.625,0,0,0,.676,1.3" transform="translate(99.86 12.005)" fill="#fff"/>
      <path id="Path_11807" data-name="Path 11807" d="M394.225,49.925l-.419-.243a1.864,1.864,0,0,1-.8-1.5l0-1.038a.829.829,0,0,1,.356-.756.667.667,0,0,1,.685.036l.419.242a1.865,1.865,0,0,1,.795,1.506v1.038a.836.836,0,0,1-.357.756.574.574,0,0,1-.293.078.78.78,0,0,1-.391-.114M393.61,46.8c-.053.03-.113.137-.114.339l0,1.037a1.382,1.382,0,0,0,.556,1.086l.419.243c.048.028.138.071.2.036s.113-.137.114-.339l0-1.038a1.38,1.38,0,0,0-.556-1.086l-.418-.242a.318.318,0,0,0-.148-.049.114.114,0,0,0-.054.013" transform="translate(99.811 11.76)" fill="#0d1858"/>
      <path id="Path_11808" data-name="Path 11808" d="M391.795,49l.419.242c.374.217.677-.011.677-.51l0-1.038a1.621,1.621,0,0,0-.675-1.3l-.419-.242c-.374-.217-.677.011-.678.51v1.038a1.621,1.621,0,0,0,.675,1.3" transform="translate(99.331 11.702)" fill="#fff"/>
      <path id="Path_11809" data-name="Path 11809" d="M392.141,48.731l-.42-.243a1.864,1.864,0,0,1-.795-1.5l0-1.038a.834.834,0,0,1,.356-.756.664.664,0,0,1,.685.036l.419.242a1.866,1.866,0,0,1,.8,1.506l0,1.038a.831.831,0,0,1-.356.756.574.574,0,0,1-.293.078.773.773,0,0,1-.39-.114m-.614-3.124c-.053.03-.114.137-.114.339l0,1.038a1.386,1.386,0,0,0,.556,1.086l.42.242c.049.028.138.069.2.036s.113-.137.114-.339V46.972a1.38,1.38,0,0,0-.556-1.086l-.418-.242a.326.326,0,0,0-.147-.049.1.1,0,0,0-.054.013" transform="translate(99.282 11.456)" fill="#0d1858"/>
      <path id="Path_11810" data-name="Path 11810" d="M389.767,47.823l.419.242c.374.217.677-.011.677-.51l0-1.038a1.621,1.621,0,0,0-.675-1.3l-.419-.242c-.374-.217-.677.011-.678.51v1.038a1.621,1.621,0,0,0,.675,1.3" transform="translate(98.816 11.402)" fill="#fff"/>
      <path id="Path_11811" data-name="Path 11811" d="M390.113,47.553l-.419-.243a1.864,1.864,0,0,1-.8-1.5l0-1.038a.833.833,0,0,1,.356-.757.667.667,0,0,1,.685.038l.419.242a1.865,1.865,0,0,1,.8,1.506l0,1.038a.832.832,0,0,1-.356.756.574.574,0,0,1-.293.078.78.78,0,0,1-.391-.114M389.5,44.43c-.053.03-.113.137-.114.339l0,1.038a1.378,1.378,0,0,0,.555,1.085l.419.243c.049.028.139.069.2.036s.113-.137.114-.339l0-1.038a1.38,1.38,0,0,0-.556-1.086l-.419-.242a.314.314,0,0,0-.147-.05.1.1,0,0,0-.054.014" transform="translate(98.767 11.157)" fill="#0d1858"/>
      <path id="Path_11812" data-name="Path 11812" d="M387.682,46.63l.419.242c.374.217.677-.011.678-.51l0-1.038a1.625,1.625,0,0,0-.676-1.3l-.419-.243c-.374-.216-.677.013-.678.512v1.038a1.621,1.621,0,0,0,.675,1.3" transform="translate(98.287 11.099)" fill="#fff"/>
      <path id="Path_11813" data-name="Path 11813" d="M388.028,46.359l-.419-.243a1.862,1.862,0,0,1-.8-1.5l0-1.038a.829.829,0,0,1,.356-.756.667.667,0,0,1,.685.036l.419.243a1.861,1.861,0,0,1,.8,1.5l0,1.038a.829.829,0,0,1-.356.756.574.574,0,0,1-.293.078.78.78,0,0,1-.391-.114m-.614-3.124c-.053.03-.113.137-.114.339l0,1.038a1.382,1.382,0,0,0,.556,1.086l.419.242c.048.029.138.071.2.036s.113-.137.114-.339l0-1.038a1.38,1.38,0,0,0-.555-1.086l-.419-.242a.314.314,0,0,0-.147-.049.114.114,0,0,0-.054.013" transform="translate(98.238 10.854)" fill="#0d1858"/>
      <path id="Path_11814" data-name="Path 11814" d="M385.654,45.451l.419.242c.374.217.677-.011.678-.51V44.144a1.621,1.621,0,0,0-.675-1.3l-.419-.242c-.374-.217-.677.011-.678.51v1.038a1.621,1.621,0,0,0,.675,1.3" transform="translate(97.772 10.8)" fill="#fff"/>
      <path id="Path_11815" data-name="Path 11815" d="M386,45.181l-.419-.243a1.862,1.862,0,0,1-.8-1.5l0-1.038a.829.829,0,0,1,.356-.756.664.664,0,0,1,.685.036l.419.243a1.86,1.86,0,0,1,.8,1.5l0,1.038a.828.828,0,0,1-.356.756.574.574,0,0,1-.293.078.781.781,0,0,1-.391-.114m-.614-3.124c-.053.03-.113.137-.114.339l0,1.038a1.382,1.382,0,0,0,.556,1.086l.419.242c.048.029.138.071.2.036s.113-.137.114-.339l0-1.038A1.384,1.384,0,0,0,386,42.336l-.419-.242a.314.314,0,0,0-.147-.05.1.1,0,0,0-.054.014" transform="translate(97.723 10.555)" fill="#0d1858"/>
      <path id="Path_11816" data-name="Path 11816" d="M383.57,44.258l.419.242c.374.217.677-.011.678-.51l0-1.038a1.625,1.625,0,0,0-.676-1.3l-.419-.243c-.374-.216-.677.013-.678.512v1.038a1.621,1.621,0,0,0,.675,1.3" transform="translate(97.242 10.497)" fill="#fff"/>
      <path id="Path_11817" data-name="Path 11817" d="M383.916,43.987l-.419-.243a1.862,1.862,0,0,1-.795-1.5V41.2a.833.833,0,0,1,.357-.756.664.664,0,0,1,.685.036l.419.242a1.868,1.868,0,0,1,.8,1.506l0,1.038a.83.83,0,0,1-.356.756.576.576,0,0,1-.293.079.783.783,0,0,1-.391-.115m-.614-3.124c-.053.03-.113.137-.114.339l0,1.038a1.378,1.378,0,0,0,.556,1.086l.419.242c.049.029.139.07.2.036s.113-.137.114-.339l0-1.038a1.382,1.382,0,0,0-.556-1.086L383.5,40.9a.314.314,0,0,0-.147-.049.114.114,0,0,0-.054.013" transform="translate(97.193 10.252)" fill="#0d1858"/>
      <path id="Path_11818" data-name="Path 11818" d="M428.327,73.374l-1.226-.708a2.715,2.715,0,0,1-1.157-2.2V65.7a1.114,1.114,0,0,1,.455-1.014.854.854,0,0,1,.871.056l1.226.708a2.717,2.717,0,0,1,1.157,2.2v4.771a1.114,1.114,0,0,1-.455,1.014.709.709,0,0,1-.36.1,1.035,1.035,0,0,1-.512-.152m-1.759-8.4a.8.8,0,0,0-.286.721V70.47a2.426,2.426,0,0,0,.988,1.9l1.226.707a.547.547,0,0,0,.533.058.8.8,0,0,0,.286-.722V67.645a2.43,2.43,0,0,0-.988-1.9l-1.226-.707a.715.715,0,0,0-.341-.107.373.373,0,0,0-.192.05" transform="translate(108.175 16.403)" fill="#0d1858"/>
      <path id="Path_11819" data-name="Path 11819" d="M434.405,71.41v-.877c-.016-.454.307-.724.666-.538a67.873,67.873,0,0,0,7.872,3.853c1.451.561,2.91.734,3.855,0,.854-.663.038-2.671-.163-3a29.927,29.927,0,0,1,1.99,3.828,1.73,1.73,0,0,1,.127,1.189,2.361,2.361,0,0,1-2.248,1.511c-2.478.26-8.266-2.563-10.77-4.233a3.029,3.029,0,0,1-1.328-1.735" transform="translate(110.324 17.762)" fill="#fff"/>
      <path id="Path_11820" data-name="Path 11820" d="M433.794,69.791l.008.928a3.265,3.265,0,0,0,1.428,1.876c2.408,1.605,7.816,4.292,10.563,4.292a3.445,3.445,0,0,0,.367-.019,2.589,2.589,0,0,0,2.455-1.687,1.974,1.974,0,0,0-.139-1.354l-.049-.107a29.062,29.062,0,0,0-1.96-3.753l-.409.258a4.064,4.064,0,0,1,.469,2.258l-.044.11a.655.655,0,0,1-.2.288,1.973,1.973,0,0,1-.716.346l-.281.074a3.759,3.759,0,0,1-1.147-.02l-.086-.015a7.472,7.472,0,0,1-1.353-.387,46.305,46.305,0,0,1-4.529-2.06l-.849-.439,0,.005c-.513-.273-.981-.529-1.391-.754-.441-.242-.818-.449-1.12-.6a.662.662,0,0,0-.673.013.831.831,0,0,0-.346.75m.484-.009a.366.366,0,0,1,.12-.334.191.191,0,0,1,.194.01c.3.154.671.359,1.109.6.627.344,1.387.76,2.246,1.2l1.6,2.24.065.028c1.4.6,3.632,1.693,5.1,1.788l.411.028-.717-1.539a3.847,3.847,0,0,0,1.087-.048l.448.929c.16.334-.018-.055.211.421l.094.2.206-.074a2.433,2.433,0,0,0,1.211-.874l.081-.117-.774-1.564a2.162,2.162,0,0,0,.074-.716c.332.653.637,1.314.937,1.964l.049.105a1.5,1.5,0,0,1,.113,1.022,2.194,2.194,0,0,1-2.04,1.335c-2.459.257-8.212-2.593-10.614-4.195a2.846,2.846,0,0,1-1.219-1.565Z" transform="translate(110.169 17.509)" fill="#0d1858"/>
      <path id="Path_11821" data-name="Path 11821" d="M362.426,26.022c2.331,6.128,11.652,23.827,18.361,28.853,2.869,2.149,7.554,4.842,16.06,9.727,3.23,1.856,7.032,4.04,11.53,6.651,18.659,10.829,43.436,24.173,51.858,26.138.4.093.789.188,1.17.281a19.663,19.663,0,0,0,4.317.742,3.423,3.423,0,0,0,3.616-2.6c.962-2.868-3.776-15.365-10.557-21.557-7.01-6.4-14.211-10.37-29.991-19.069-2.518-1.388-5.252-2.9-8.235-4.549-30.49-16.916-47.611-26.146-50.886-27.433-2.562-1.006-5.759-1.628-7.046-.355-.676.67-.742,1.737-.2,3.173M468.252,91.141c-1.095,1.418-3.387,1.4-7.921-.213-12.916-4.583-35.1-17.692-51.614-27.274S385.554,50.99,381.627,48.048a18.44,18.44,0,0,1-2.088-1.873,18.646,18.646,0,0,1-3.171-7.77c-.094-.712-2.353-1.53-4.152-2.072a134.422,134.422,0,0,1-7.44-13.713,12.783,12.783,0,0,1,4.716,1.035c3.257,1.279,20.357,10.5,50.83,27.405,2.982,1.655,5.717,3.163,8.235,4.551,15.745,8.68,22.931,12.641,29.9,19,4.781,4.365,8.341,11.672,9.8,16.527" transform="translate(91.951 5.622)" fill="#0d1858"/>
      <path id="Path_11822" data-name="Path 11822" d="M445.126,81.992c0,.814.572,1.144,1.277.737a2.823,2.823,0,0,0,1.277-2.211c0-.815-.572-1.145-1.277-.737a2.823,2.823,0,0,0-1.277,2.211" transform="translate(113.047 20.217)" fill="#fff"/>
      <path id="Path_11823" data-name="Path 11823" d="M387.467,53.43h0a.48.48,0,0,0-.2-.651,85.52,85.52,0,0,1-7.818-4.648,26.553,26.553,0,0,1-3.668-3.31.48.48,0,0,0-.661-.049h0a.482.482,0,0,0-.055.7,27.2,27.2,0,0,0,3.8,3.435,84.731,84.731,0,0,0,7.943,4.726.48.48,0,0,0,.653-.2" transform="translate(95.223 11.343)" fill="#ffb1a5"/>
      <path id="Path_11824" data-name="Path 11824" d="M374.66,44.249h0a.482.482,0,0,0,.069-.666c-.2-.261-.488-.635-.749-1.03a.483.483,0,1,0-.808.532c.28.425.578.82.795,1.095a.483.483,0,0,0,.692.069" transform="translate(94.753 10.752)" fill="#ffb1a5"/>
      <path id="Path_11825" data-name="Path 11825" d="M434.552,69.052c-.478-1.91-15.961-10.555-21.28-13.537a3.969,3.969,0,0,0-3.521-.179L381.577,66.1,344.429,76.222a1.015,1.015,0,0,0-.326,1.832l2.719,1.812a8.254,8.254,0,0,0,5.328,1.354l72.9-6.611a17.7,17.7,0,0,0,6.391-1.776c1.673-.844,3.594-1.837,3.107-3.782" transform="translate(87.275 13.97)" fill="#ffb2a5"/>
      <path id="Path_11826" data-name="Path 11826" d="M431.73,69.3c-.478-1.91-13.055-8.624-18.374-11.605a3.965,3.965,0,0,0-3.521-.178L381.522,67.565l-35.545,8.957c-.861.207-.735.513,0,1l2.335,1.584a8.261,8.261,0,0,0,5.328,1.353l69.721-6.295c2.221-.2,3.269-.08,5.259-1.085,1.674-.844,3.594-1.837,3.107-3.782" transform="translate(87.714 14.524)" fill="#fff"/>
      <path id="Path_11827" data-name="Path 11827" d="M344.019,78.3l2.717,1.812a8.54,8.54,0,0,0,4.724,1.428c.253,0,.508-.011.761-.035l10.2-.925h0l62.7-5.685a17.892,17.892,0,0,0,6.479-1.8c1.591-.8,3.772-1.9,3.233-4.057-.436-1.748-11.483-8.132-21.055-13.5l-.341-.192a4.238,4.238,0,0,0-3.734-.189L381.541,65.927l-35.934,9.787h0l-1.19.324a1.258,1.258,0,0,0-.4,2.267m25.222,1.176.053-.009c-3.3.05-9.964-.1-11.613-1.037-1.817-1.035-4.918-3.28-5.8-3.929l29.814-8.121,28.2-10.775a3.7,3.7,0,0,1,3.317.164l.341.191c5.04,2.826,20.379,11.425,20.822,13.194.413,1.648-1.041,2.528-2.982,3.507a17.428,17.428,0,0,1-6.3,1.751Z" transform="translate(87.227 13.922)" fill="#0d1858"/>
      <path id="Path_11828" data-name="Path 11828" d="M378.682,37.67a.874.874,0,0,0,.751-1.357c-1.764-2.677-8.113-6.916-8.64-7.229-.66-.392-3.606.512-3.606.512l-18.225,5.269a.633.633,0,0,0-.165,1.141l2.044,1.312a5.379,5.379,0,0,0,3.011.849Z" transform="translate(88.508 7.361)" fill="#ffb2a5"/>
      <path id="Path_11829" data-name="Path 11829" d="M376.674,37.37a5.791,5.791,0,0,0,1.631-.3c-1.926-2.4-7.307-6.168-8.305-6.618-.7-.316-3.606.51-3.606.51l-15.465,4.473c-.523.152-1.251-.021-.793.272l2.045,1.312a3.492,3.492,0,0,0,2.435.579Z" transform="translate(88.886 7.716)" fill="#fff"/>
      <path id="Path_11830" data-name="Path 11830" d="M348.34,35.721a.868.868,0,0,0,.374.538l2.045,1.31a5.61,5.61,0,0,0,3.033.889h.113l24.826-.5a1.13,1.13,0,0,0,1-.576,1.114,1.114,0,0,0-.046-1.157c-1.764-2.678-8.092-6.932-8.716-7.3-.719-.426-3.293.331-3.8.488L348.943,34.68a.939.939,0,0,0-.231.1.879.879,0,0,0-.393.865c0,.025.015.046.02.071m30.386,1.757-16.081.321c-1.4-.149-4.828-.584-6.055-1.4-.854-.569-2.688-1.779-3.623-2.375L367.3,29.875c1.185-.362,3.025-.767,3.416-.535.617.367,6.844,4.548,8.561,7.155a.622.622,0,0,1,.026.657.6.6,0,0,1-.569.326h-.01Z" transform="translate(88.459 7.313)" fill="#0d1858"/>
      <path id="Path_11831" data-name="Path 11831" d="M381.74,37.624S372.76,9.272,371.68,8.107a38.549,38.549,0,0,0-5.59-3.67.687.687,0,0,0-1.026.658l2.245,24.6a2.776,2.776,0,0,0,1.384,2.158l11.8,6.765s1.416.744,1.248-1" transform="translate(92.713 1.103)" fill="#ffb2a5"/>
      <path id="Path_11832" data-name="Path 11832" d="M364.873,5.167l2.243,24.6a3.02,3.02,0,0,0,1.506,2.346l10.872,6.232-.013.014.287.144.653.375a1.711,1.711,0,0,0,.727.191.867.867,0,0,0,.493-.14,1.03,1.03,0,0,0,.4-.843,2.775,2.775,0,0,0-.011-.439l-.01-.05c-.92-2.907-9.027-28.437-10.114-29.607a38.149,38.149,0,0,0-5.647-3.717.928.928,0,0,0-1.386.89m1.14,7.176c4.9,8.328,13.1,22.712,13.641,24.08a2.313,2.313,0,0,1,.119,1.529L368.863,31.7a2.54,2.54,0,0,1-1.265-1.971Z" transform="translate(92.664 1.054)" fill="#0d1858"/>
      <path id="Path_11833" data-name="Path 11833" d="M366.262,8.694a4.073,4.073,0,0,0,1.842,3.191c1.018.588,1.843.112,1.843-1.063A4.071,4.071,0,0,0,368.1,7.631c-1.017-.588-1.842-.112-1.842,1.063" transform="translate(93.018 1.874)" fill="#fff"/>
      <path id="Path_11834" data-name="Path 11834" d="M436.594,62.276a.483.483,0,0,1,0,.915,1.751,1.751,0,0,1-1.586,0,.483.483,0,0,1,0-.915,1.751,1.751,0,0,1,1.586,0" transform="translate(110.394 15.768)" fill="#0c1859"/>
      <path id="Path_11835" data-name="Path 11835" d="M433.286,60.366a.483.483,0,0,1,0,.915,1.751,1.751,0,0,1-1.586,0,.483.483,0,0,1,0-.915,1.751,1.751,0,0,1,1.586,0" transform="translate(109.553 15.283)" fill="#0c1859"/>
      <path id="Path_11836" data-name="Path 11836" d="M429.977,58.456a.483.483,0,0,1,0,.915,1.751,1.751,0,0,1-1.586,0,.483.483,0,0,1,0-.915,1.751,1.751,0,0,1,1.586,0" transform="translate(108.713 14.798)" fill="#0c1859"/>
      <path id="Path_11837" data-name="Path 11837" d="M426.668,56.547a.483.483,0,0,1,0,.915,1.751,1.751,0,0,1-1.586,0,.483.483,0,0,1,0-.915,1.751,1.751,0,0,1,1.586,0" transform="translate(107.873 14.313)" fill="#0c1859"/>
      <path id="Path_11838" data-name="Path 11838" d="M423.36,54.637a.483.483,0,0,1,0,.915,1.751,1.751,0,0,1-1.586,0,.483.483,0,0,1,0-.915,1.751,1.751,0,0,1,1.586,0" transform="translate(107.033 13.828)" fill="#0c1859"/>
      <path id="Path_11839" data-name="Path 11839" d="M420.022,52.707a.483.483,0,0,1,0,.915,1.751,1.751,0,0,1-1.586,0,.483.483,0,0,1,0-.915,1.751,1.751,0,0,1,1.586,0" transform="translate(106.185 13.338)" fill="#0c1859"/>
      <path id="Path_11840" data-name="Path 11840" d="M416.714,50.8a.483.483,0,0,1,0,.915,1.751,1.751,0,0,1-1.586,0,.483.483,0,0,1,0-.915,1.751,1.751,0,0,1,1.586,0" transform="translate(105.345 12.853)" fill="#0c1859"/>
      <path id="Path_11841" data-name="Path 11841" d="M413.4,48.888a.483.483,0,0,1,0,.915,1.751,1.751,0,0,1-1.586,0,.483.483,0,0,1,0-.915,1.751,1.751,0,0,1,1.586,0" transform="translate(104.504 12.368)" fill="#0c1859"/>
      <path id="Path_11842" data-name="Path 11842" d="M410.1,46.978a.483.483,0,0,1,0,.915,1.753,1.753,0,0,1-1.588,0,.483.483,0,0,1,0-.915,1.751,1.751,0,0,1,1.586,0" transform="translate(103.664 11.883)" fill="#0c1859"/>
      <path id="Path_11843" data-name="Path 11843" d="M406.788,45.069a.483.483,0,0,1,0,.915,1.751,1.751,0,0,1-1.586,0,.483.483,0,0,1,0-.915,1.751,1.751,0,0,1,1.586,0" transform="translate(102.824 11.398)" fill="#0c1859"/>
      <path id="Path_11844" data-name="Path 11844" d="M403.479,43.159a.483.483,0,0,1,0,.915,1.751,1.751,0,0,1-1.586,0,.483.483,0,0,1,0-.915,1.751,1.751,0,0,1,1.586,0" transform="translate(101.983 10.913)" fill="#0c1859"/>
      <path id="Path_11845" data-name="Path 11845" d="M400.171,41.25a.483.483,0,0,1,0,.915,1.753,1.753,0,0,1-1.587,0,.483.483,0,0,1,0-.915,1.753,1.753,0,0,1,1.587,0" transform="translate(101.143 10.428)" fill="#0c1859"/>
      <path id="Path_11846" data-name="Path 11846" d="M396.862,39.34a.483.483,0,0,1,0,.915,1.751,1.751,0,0,1-1.586,0,.483.483,0,0,1,0-.915,1.751,1.751,0,0,1,1.586,0" transform="translate(100.303 9.943)" fill="#0c1859"/>
      <path id="Path_11847" data-name="Path 11847" d="M393.525,37.41a.483.483,0,0,1,0,.915,1.751,1.751,0,0,1-1.586,0,.483.483,0,0,1,0-.915,1.751,1.751,0,0,1,1.586,0" transform="translate(99.455 9.453)" fill="#0c1859"/>
      <path id="Path_11848" data-name="Path 11848" d="M390.216,35.5a.484.484,0,0,1,0,.917,1.751,1.751,0,0,1-1.586,0,.484.484,0,0,1,0-.917,1.751,1.751,0,0,1,1.586,0" transform="translate(98.615 8.968)" fill="#0c1859"/>
      <path id="Path_11849" data-name="Path 11849" d="M386.907,33.591a.483.483,0,0,1,0,.915,1.751,1.751,0,0,1-1.586,0,.483.483,0,0,1,0-.915,1.751,1.751,0,0,1,1.586,0" transform="translate(97.775 8.483)" fill="#0c1859"/>
      <path id="Path_11850" data-name="Path 11850" d="M383.6,31.681a.483.483,0,0,1,0,.915,1.751,1.751,0,0,1-1.586,0,.483.483,0,0,1,0-.915,1.751,1.751,0,0,1,1.586,0" transform="translate(96.935 7.998)" fill="#0c1859"/>
    </g>
  </g>
</svg>
