<svg xmlns="http://www.w3.org/2000/svg" width="13" height="14" viewBox="0 0 13 14">
  <g id="Icon_feather-user" data-name="Icon feather-user" transform="translate(-81.5 -11)">
    <path id="Union_1" data-name="Union 1" d="M-832.027-6.668v-1.4a2.137,2.137,0,0,0-2.167-2.1h-5.778a2.189,2.189,0,0,0-1.532.615,2.055,2.055,0,0,0-.634,1.485v1.4a.711.711,0,0,1-.722.7.711.711,0,0,1-.722-.7v-1.4a3.424,3.424,0,0,1,1.057-2.475,3.646,3.646,0,0,1,2.554-1.025h5.778a3.561,3.561,0,0,1,3.611,3.5v1.4a.712.712,0,0,1-.722.7A.711.711,0,0,1-832.027-6.668Zm-8.667-9.8a3.561,3.561,0,0,1,3.611-3.5,3.561,3.561,0,0,1,3.611,3.5,3.561,3.561,0,0,1-3.611,3.5A3.561,3.561,0,0,1-840.694-16.468Zm1.445,0a2.136,2.136,0,0,0,2.167,2.1,2.136,2.136,0,0,0,2.167-2.1,2.136,2.136,0,0,0-2.167-2.1A2.136,2.136,0,0,0-839.249-16.468Z" transform="translate(925.083 30.968)" fill="#fff"/>
  </g>
</svg>
