<svg id="Icon_feather-play-circle2" data-name="Icon feather-play-circle2" xmlns="http://www.w3.org/2000/svg" width="15" height="15" viewBox="0 0 15 15">
  <path id="Union_3" data-name="Union 3" d="M4.581,14.41A7.52,7.52,0,1,1,7.5,15,7.476,7.476,0,0,1,4.581,14.41ZM1.364,7.5A6.136,6.136,0,1,0,7.5,1.364,6.143,6.143,0,0,0,1.364,7.5Zm4.451,3.328a.682.682,0,0,1-.36-.6V4.773a.682.682,0,0,1,1.06-.567l4.091,2.727a.682.682,0,0,1,0,1.135L6.515,10.795a.682.682,0,0,1-.7.034Zm1-1.875L9,7.5,6.818,6.047Z" fill="#e3402b"/>
</svg>
